<?xml version="1.0" encoding="UTF-8" standalone="no"?>
<!-- Created with Inkscape (http://www.inkscape.org/) -->

<svg
   xmlns:dc="http://purl.org/dc/elements/1.1/"
   xmlns:cc="http://creativecommons.org/ns#"
   xmlns:rdf="http://www.w3.org/1999/02/22-rdf-syntax-ns#"
   xmlns:svg="http://www.w3.org/2000/svg"
   xmlns="http://www.w3.org/2000/svg"
   xmlns:xlink="http://www.w3.org/1999/xlink"
   xmlns:sodipodi="http://sodipodi.sourceforge.net/DTD/sodipodi-0.dtd"
   xmlns:inkscape="http://www.inkscape.org/namespaces/inkscape"
   width="640"
   height="350"
   viewBox="0 0 639.99999 350"
   id="svg2"
   version="1.1"
   inkscape:version="0.91 r13725"
   sodipodi:docname="opacity.svg">
  <defs
     id="defs4">
    <linearGradient
       id="linearGradient7016"
       inkscape:collect="always">
      <stop
         id="stop7018"
         offset="0"
         style="stop-color:#ffffff;stop-opacity:0" />
      <stop
         id="stop7020"
         offset="1"
         style="stop-color:#ffffff;stop-opacity:1" />
    </linearGradient>
    <linearGradient
       inkscape:collect="always"
       id="linearGradient6781">
      <stop
         style="stop-color:#ffffff;stop-opacity:1;"
         offset="0"
         id="stop6783" />
      <stop
         style="stop-color:#ffffff;stop-opacity:0;"
         offset="1"
         id="stop6785" />
    </linearGradient>
    <linearGradient
       inkscape:collect="always"
       id="linearGradient6749">
      <stop
         style="stop-color:#efefef;stop-opacity:0"
         offset="0"
         id="stop6751" />
      <stop
         style="stop-color:#ffffff;stop-opacity:1"
         offset="1"
         id="stop6753" />
    </linearGradient>
    <linearGradient
       inkscape:collect="always"
       xlink:href="#linearGradient7016"
       id="linearGradient6755"
       x1="70"
       y1="742.36224"
       x2="69.310738"
       y2="792.36224"
       gradientUnits="userSpaceOnUse"
       gradientTransform="matrix(0.49550219,0,0,1.0010347,70.864813,-0.89266075)" />
    <linearGradient
       inkscape:collect="always"
       xlink:href="#linearGradient6781"
       id="linearGradient6787"
       x1="70"
       y1="902.36224"
       x2="70"
       y2="952.36224"
       gradientUnits="userSpaceOnUse"
       gradientTransform="matrix(0.49550219,0,0,1.0010347,70.864813,-0.89266075)" />
    <linearGradient
       inkscape:collect="always"
       xlink:href="#linearGradient6749"
       id="linearGradient6755-5"
       x1="70"
       y1="742.36224"
       x2="70"
       y2="792.36224"
       gradientUnits="userSpaceOnUse"
       gradientTransform="matrix(-0.49722716,0,0,1.0010347,569.83468,-663.25501)" />
    <linearGradient
       inkscape:collect="always"
       xlink:href="#linearGradient6749"
       id="linearGradient6755-5-3"
       x1="70"
       y1="742.36224"
       x2="70"
       y2="792.36224"
       gradientUnits="userSpaceOnUse"
       gradientTransform="matrix(-0.49808964,0,0,-1.0218676,569.79033,908.88185)" />
  </defs>
  <sodipodi:namedview
     id="base"
     pagecolor="#ffffff"
     bordercolor="#666666"
     borderopacity="1.0"
     inkscape:pageopacity="0.0"
     inkscape:pageshadow="2"
     inkscape:zoom="2.928"
     inkscape:cx="196.2532"
     inkscape:cy="195.95964"
     inkscape:document-units="px"
     inkscape:current-layer="layer4"
     showgrid="true"
     units="px"
     showguides="true"
     inkscape:guide-bbox="true"
     gridtolerance="10000"
     inkscape:window-width="1541"
     inkscape:window-height="969"
     inkscape:window-x="0"
     inkscape:window-y="1"
     inkscape:window-maximized="0"
     guidetolerance="10000"
     objecttolerance="10000">
    <inkscape:grid
       type="xygrid"
       id="grid3338"
       empspacing="2"
       spacingx="9.9999998"
       spacingy="9.9999999"
       visible="true"
       enabled="true"
       snapvisiblegridlinesonly="true" />
    <sodipodi:guide
       position="0,350"
       orientation="0,1"
       id="guide3342"
       inkscape:label=""
       inkscape:color="rgb(0,0,255)" />
    <sodipodi:guide
       position="320,500"
       orientation="1,0"
       id="guide3344"
       inkscape:label=""
       inkscape:color="rgb(0,0,255)" />
    <sodipodi:guide
       position="120,500"
       orientation="1,0"
       id="guide3350" />
    <sodipodi:guide
       position="519.99999,500"
       orientation="1,0"
       id="guide3354" />
  </sodipodi:namedview>
  <metadata
     id="metadata7">
    <rdf:RDF>
      <cc:Work
         rdf:about="">
        <dc:format>image/svg+xml</dc:format>
        <dc:type
           rdf:resource="http://purl.org/dc/dcmitype/StillImage" />
        <dc:title></dc:title>
      </cc:Work>
    </rdf:RDF>
  </metadata>
  <g
     inkscape:groupmode="layer"
     id="layer4"
     inkscape:label="Layer 4" />
  <g
     inkscape:groupmode="layer"
     id="layer2"
     inkscape:label="Layer 2"
     transform="translate(0,-650)">
    <rect
       style="opacity:1;fill:#e5e5ea;fill-opacity:1;stroke:none;stroke-width:2;stroke-linecap:round;stroke-linejoin:round;stroke-miterlimit:4;stroke-dasharray:4, 8;stroke-dashoffset:0;stroke-opacity:1"
       id="rect5659"
       width="360"
       height="349.7269"
       x="140"
       y="650.43713" />
  </g>
  <g
     inkscape:groupmode="layer"
     id="layer3"
     inkscape:label="Layer 3">
    <path
       style="opacity:1;fill:url(#linearGradient6755-5);fill-opacity:1;stroke:none;stroke-width:1.5;stroke-linecap:round;stroke-linejoin:round;stroke-miterlimit:4;stroke-dasharray:3, 6;stroke-dashoffset:0;stroke-opacity:1"
       d="m 500.22266,79.875 0,34.8125 69.61259,0 0,-34.8125 -69.61259,0 z"
       id="rect6747-00"
       inkscape:connector-curvature="0" />
    <path
       inkscape:connector-curvature="0"
       style="opacity:1;fill:url(#linearGradient6755-5-3);fill-opacity:1;stroke:none;stroke-width:1.5;stroke-linecap:round;stroke-linejoin:round;stroke-miterlimit:4;stroke-dasharray:3, 6;stroke-dashoffset:0;stroke-opacity:1"
       d="m 500.05756,150.28631 0,-35.53699 69.73334,0 0,35.53699 -69.73334,0 z"
       id="rect6747-00-5" />
  </g>
  <g
     inkscape:label="Layer 1"
     inkscape:groupmode="layer"
     id="layer1"
     transform="translate(0,-702.36227)">
    <rect
       style="opacity:1;fill:#ffffff;fill-opacity:1;stroke:none;stroke-width:1.5;stroke-linecap:round;stroke-linejoin:round;stroke-miterlimit:4;stroke-dasharray:3, 6;stroke-dashoffset:0;stroke-opacity:1"
       id="rect6745"
       width="69.370308"
       height="110.11382"
       x="70.864815"
       y="792.28943" />
    <rect
       style="opacity:1;fill:url(#linearGradient6755);fill-opacity:1;stroke:none;stroke-width:1.5;stroke-linecap:round;stroke-linejoin:round;stroke-miterlimit:4;stroke-dasharray:3, 6;stroke-dashoffset:0;stroke-opacity:1"
       id="rect6747"
       width="69.370308"
       height="50.051735"
       x="70.864815"
       y="742.23767" />
    <rect
       style="opacity:1;fill:url(#linearGradient6787);fill-opacity:1;stroke:none;stroke-width:1.5;stroke-linecap:round;stroke-linejoin:round;stroke-miterlimit:4;stroke-dasharray:3, 6;stroke-dashoffset:0;stroke-opacity:1"
       id="rect6747-0"
       width="69.370308"
       height="50.051735"
       x="70.935631"
       y="902.61536" />
    <rect
       style="opacity:1;fill:#b4b2d8;fill-opacity:1;stroke:none;stroke-width:2;stroke-linecap:round;stroke-linejoin:round;stroke-miterlimit:4;stroke-dasharray:4, 8;stroke-dashoffset:0;stroke-opacity:1"
       id="rect5657"
       width="360"
       height="20.245905"
       x="140.08287"
       y="722.6355" />
    <rect
       style="opacity:0.4;fill:#b4b2d8;fill-opacity:1;stroke:none;stroke-width:2;stroke-linecap:round;stroke-linejoin:round;stroke-miterlimit:4;stroke-dasharray:4, 8;stroke-dashoffset:0;stroke-opacity:1"
       id="rect5657-81"
       width="340.47418"
       height="241.55737"
       x="150.0009"
       y="741.00983" />
    <rect
       style="opacity:1;fill:#a3cca8;fill-opacity:1;stroke:none;stroke-width:2;stroke-linecap:round;stroke-linejoin:round;stroke-miterlimit:4;stroke-dasharray:4, 8;stroke-dashoffset:0;stroke-opacity:1"
       id="rect5657-0"
       width="360"
       height="9.9585667"
       x="140"
       y="772.45746" />
    <rect
       style="opacity:0.506;fill:#a3cca8;fill-opacity:1;stroke:none;stroke-width:2;stroke-linecap:round;stroke-linejoin:round;stroke-miterlimit:4;stroke-dasharray:4, 8;stroke-dashoffset:0;stroke-opacity:1"
       id="rect5657-0-7"
       width="302.45306"
       height="104.22086"
       x="169.31352"
       y="782.35571" />
    <rect
       style="opacity:1;fill:#ccc4a3;fill-opacity:1;stroke:none;stroke-width:2;stroke-linecap:round;stroke-linejoin:round;stroke-miterlimit:4;stroke-dasharray:4, 8;stroke-dashoffset:0;stroke-opacity:1"
       id="rect5657-0-5"
       width="360"
       height="9.9585667"
       x="139.74364"
       y="882.5191" />
    <rect
       style="opacity:0.506;fill:#ccc4a3;fill-opacity:1;stroke:none;stroke-width:2;stroke-linecap:round;stroke-linejoin:round;stroke-miterlimit:4;stroke-dasharray:4, 8;stroke-dashoffset:0;stroke-opacity:1"
       id="rect5657-0-5-8"
       width="300.4382"
       height="95.34108"
       x="170.23293"
       y="892.42346" />
    <rect
       style="opacity:1;fill:#d4a8cc;fill-opacity:1;stroke:none;stroke-width:2;stroke-linecap:round;stroke-linejoin:round;stroke-miterlimit:4;stroke-dasharray:4, 8;stroke-dashoffset:0;stroke-opacity:1"
       id="rect5657-8"
       width="360"
       height="20.245905"
       x="140.10049"
       y="983.00702" />
    <rect
       style="opacity:0.51399997;fill:#d4a8cc;fill-opacity:1;stroke:none;stroke-width:2;stroke-linecap:round;stroke-linejoin:round;stroke-miterlimit:4;stroke-dasharray:4, 8;stroke-dashoffset:0;stroke-opacity:1"
       id="rect5657-8-5"
       width="340.53278"
       height="55.08197"
       x="149.39011"
       y="997.69281" />
    <path
       style="fill:none;fill-rule:evenodd;stroke:#e1ae26;stroke-width:1.5;stroke-linecap:round;stroke-linejoin:round;stroke-miterlimit:4;stroke-dasharray:3, 6;stroke-dashoffset:0;stroke-opacity:1"
       d="m 71.261749,982.48604 68.913441,0"
       id="path6609"
       inkscape:connector-curvature="0" />
    <path
       style="fill:none;fill-rule:evenodd;stroke:#4b4b4b;stroke-width:1.5;stroke-linecap:round;stroke-linejoin:round;stroke-miterlimit:4;stroke-dasharray:3,6;stroke-dashoffset:0;stroke-opacity:1"
       d="m 71.287118,743.04688 68.677112,0"
       id="path6609-2"
       inkscape:connector-curvature="0" />
    <path
       style="fill:none;fill-rule:evenodd;stroke:#00dd41;stroke-width:1.5;stroke-linecap:round;stroke-linejoin:round;stroke-miterlimit:4;stroke-dasharray:3, 6;stroke-dashoffset:0;stroke-opacity:1"
       d="m 71.145478,791.87999 68.677122,0"
       id="path6609-2-4"
       inkscape:connector-curvature="0" />
    <path
       style="fill:none;fill-rule:evenodd;stroke:#4b4b4b;stroke-width:1.5;stroke-linecap:round;stroke-linejoin:round;stroke-miterlimit:4;stroke-dasharray:3,6;stroke-dashoffset:0;stroke-opacity:1"
       d="m 71.12011,952.99278 68.91345,0"
       id="path6609-0"
       inkscape:connector-curvature="0" />
    <path
       style="fill:none;fill-rule:evenodd;stroke:#dd3b00;stroke-width:1.5;stroke-linecap:round;stroke-linejoin:round;stroke-miterlimit:4;stroke-dasharray:3, 6;stroke-dashoffset:0;stroke-opacity:1"
       d="m 71.022423,903.13839 68.913447,0"
       id="path6609-5"
       inkscape:connector-curvature="0" />
    <g
       style="font-style:normal;font-weight:normal;font-size:40px;line-height:125%;font-family:Sans;letter-spacing:0px;word-spacing:0px;fill:#000000;fill-opacity:1;stroke:none;stroke-width:1px;stroke-linecap:butt;stroke-linejoin:miter;stroke-opacity:1"
       id="text6789">
      <path
         d="m 23.200983,964.5246 q -0.90332,0 -1.428223,0.708 -0.524902,0.70191 -0.524902,1.92872 0,1.2268 0.518799,1.93481 0.524902,0.7019 1.434326,0.7019 0.897217,0 1.422119,-0.708 0.524903,-0.70801 0.524903,-1.92871 0,-1.2146 -0.524903,-1.92261 -0.524902,-0.71411 -1.422119,-0.71411 z m 0,-0.95215 q 1.464844,0 2.301025,0.95215 0.836182,0.95215 0.836182,2.63672 0,1.67846 -0.836182,2.63671 -0.836181,0.95215 -2.301025,0.95215 -1.470947,0 -2.307129,-0.95215 -0.830078,-0.95825 -0.830078,-2.63671 0,-1.68457 0.830078,-2.63672 0.836182,-0.95215 2.307129,-0.95215 z"
         style="font-size:12.5px"
         id="path6972" />
      <path
         d="m 31.654352,961.07611 0,0.93384 -1.074219,0 q -0.604248,0 -0.842285,0.24414 -0.231933,0.24414 -0.231933,0.87891 l 0,0.60424 1.849365,0 0,0.87281 -1.849365,0 0,5.96313 -1.129151,0 0,-5.96313 -1.074218,0 0,-0.87281 1.074218,0 0,-0.47607 q 0,-1.14136 0.531006,-1.66016 0.531006,-0.5249 1.68457,-0.5249 l 1.062012,0 z"
         style="font-size:12.5px"
         id="path6974" />
      <path
         d="m 36.073298,961.07611 0,0.93384 -1.074219,0 q -0.604248,0 -0.842285,0.24414 -0.231934,0.24414 -0.231934,0.87891 l 0,0.60424 1.849365,0 0,0.87281 -1.849365,0 0,5.96313 -1.12915,0 0,-5.96313 -1.074219,0 0,-0.87281 1.074219,0 0,-0.47607 q 0,-1.14136 0.531005,-1.66016 0.531006,-0.5249 1.684571,-0.5249 l 1.062012,0 z"
         style="font-size:12.5px"
         id="path6976" />
      <path
         d="m 41.38946,963.93866 0,1.06201 q -0.476075,-0.24414 -0.98877,-0.36621 -0.512695,-0.12207 -1.062012,-0.12207 -0.836181,0 -1.257324,0.25635 -0.415039,0.25635 -0.415039,0.76904 0,0.39063 0.299072,0.61646 0.299073,0.21972 1.202393,0.42114 l 0.384521,0.0855 q 1.196289,0.25635 1.696778,0.72632 0.506592,0.46386 0.506592,1.30004 0,0.95215 -0.756836,1.50757 -0.750733,0.55542 -2.069092,0.55542 -0.549317,0 -1.147461,-0.10986 -0.592041,-0.10376 -1.251221,-0.31738 l 0,-1.15967 q 0.622559,0.32349 1.226807,0.48828 0.604248,0.15869 1.196289,0.15869 0.793457,0 1.220703,-0.26855 0.427246,-0.27466 0.427246,-0.76905 0,-0.45776 -0.311279,-0.7019 -0.305176,-0.24414 -1.348877,-0.46997 l -0.390625,-0.0915 q -1.043701,-0.21973 -1.507569,-0.67139 -0.463867,-0.45776 -0.463867,-1.25122 0,-0.96436 0.683594,-1.48926 0.683594,-0.5249 1.940918,-0.5249 0.622559,0 1.171875,0.0915 0.549316,0.0915 1.013184,0.27466 z"
         style="font-size:12.5px"
         id="path6978" />
      <path
         d="m 49.397272,966.87445 0,0.54932 -5.163574,0 q 0.07324,1.15967 0.695801,1.77002 0.628662,0.60424 1.745605,0.60424 0.646973,0 1.251221,-0.15869 0.610351,-0.15869 1.208496,-0.47607 l 0,1.06201 q -0.604248,0.25635 -1.239014,0.39063 -0.634765,0.13427 -1.287842,0.13427 -1.635742,0 -2.593994,-0.95215 -0.952148,-0.95214 -0.952148,-2.57568 0,-1.67847 0.90332,-2.66113 0.909424,-0.98877 2.44751,-0.98877 1.379395,0 2.178955,0.89111 0.805664,0.88501 0.805664,2.41089 z m -1.123047,-0.32959 q -0.01221,-0.92163 -0.518799,-1.47095 -0.500488,-0.54931 -1.330566,-0.54931 -0.939941,0 -1.507568,0.531 -0.561524,0.53101 -0.646973,1.49536 l 4.003906,-0.006 z"
         style="font-size:12.5px"
         id="path6980" />
      <path
         d="m 52.32696,961.79633 0,1.94091 2.313232,0 0,0.87281 -2.313232,0 0,3.71093 q 0,0.83619 0.22583,1.07422 0.231933,0.23804 0.933838,0.23804 l 1.153564,0 0,0.93994 -1.153564,0 q -1.300049,0 -1.794434,-0.48218 -0.494385,-0.48828 -0.494385,-1.77002 l 0,-3.71093 -0.823974,0 0,-0.87281 0.823974,0 0,-1.94091 1.129151,0 z"
         style="font-size:12.5px"
         id="path6982" />
    </g>
    <g
       style="font-style:normal;font-weight:normal;font-size:40px;line-height:125%;font-family:Sans;letter-spacing:0px;word-spacing:0px;fill:#000000;fill-opacity:1;stroke:none;stroke-width:1px;stroke-linecap:butt;stroke-linejoin:miter;stroke-opacity:1"
       id="text6793">
      <path
         d="m 20.270409,752.3822 0,0.93384 -1.074219,0 q -0.604248,0 -0.842285,0.24414 -0.231934,0.24414 -0.231934,0.87891 l 0,0.60424 1.849365,0 0,0.87281 -1.849365,0 0,5.96313 -1.12915,0 0,-5.96313 -1.074219,0 0,-0.87281 1.074219,0 0,-0.47607 q 0,-1.14136 0.531006,-1.66016 0.531005,-0.5249 1.68457,-0.5249 l 1.062012,0 z"
         style="font-size:12.5px;text-align:center;text-anchor:middle"
         id="path6985" />
      <path
         d="m 24.33535,758.44299 q -1.361084,0 -1.885986,0.31128 -0.524903,0.31128 -0.524903,1.06201 0,0.59815 0.390625,0.95215 0.396729,0.3479 1.074219,0.3479 0.933838,0 1.495361,-0.65918 0.567627,-0.66528 0.567627,-1.76391 l 0,-0.25025 -1.116943,0 z m 2.23999,-0.46386 0,3.90014 -1.123047,0 0,-1.0376 q -0.384521,0.62256 -0.958252,0.92164 -0.57373,0.29296 -1.403808,0.29296 -1.049805,0 -1.672363,-0.58593 -0.616456,-0.59204 -0.616456,-1.58081 0,-1.15357 0.769043,-1.73951 0.775147,-0.58593 2.307129,-0.58593 l 1.574707,0 0,-0.10987 q 0,-0.77514 -0.512695,-1.19629 -0.506592,-0.42724 -1.428223,-0.42724 -0.585937,0 -1.141357,0.14038 -0.55542,0.14038 -1.068115,0.42114 l 0,-1.0376 q 0.616455,-0.23803 1.196289,-0.354 0.579834,-0.12207 1.12915,-0.12207 1.483155,0 2.215576,0.76904 0.732422,0.76905 0.732422,2.33155 z"
         style="font-size:12.5px;text-align:center;text-anchor:middle"
         id="path6987" />
      <path
         d="m 33.417381,756.08093 0,-3.69873 1.123047,0 0,9.49707 -1.123047,0 0,-1.02539 q -0.354004,0.61035 -0.897217,0.90943 -0.537109,0.29296 -1.293945,0.29296 -1.239013,0 -2.020263,-0.98877 -0.775147,-0.98876 -0.775147,-2.60009 0,-1.61133 0.775147,-2.6001 0.78125,-0.98877 2.020263,-0.98877 0.756836,0 1.293945,0.29907 0.543213,0.29297 0.897217,0.90332 z m -3.826904,2.38648 q 0,1.23901 0.506592,1.94702 0.512695,0.7019 1.403808,0.7019 0.891114,0 1.403809,-0.7019 0.512695,-0.70801 0.512695,-1.94702 0,-1.23902 -0.512695,-1.94092 -0.512695,-0.70801 -1.403809,-0.70801 -0.891113,0 -1.403808,0.70801 -0.506592,0.7019 -0.506592,1.94092 z"
         style="font-size:12.5px;text-align:center;text-anchor:middle"
         id="path6989" />
      <path
         d="m 36.853661,755.04333 1.123046,0 0,6.83594 -1.123046,0 0,-6.83594 z m 0,-2.66113 1.123046,0 0,1.42212 -1.123046,0 0,-1.42212 z"
         style="font-size:12.5px;text-align:center;text-anchor:middle"
         id="path6991" />
      <path
         d="m 46.002831,757.7533 0,4.12597 -1.123047,0 0,-4.08935 q 0,-0.97046 -0.378418,-1.45264 -0.378418,-0.48218 -1.135254,-0.48218 -0.909424,0 -1.434326,0.57984 -0.524903,0.57983 -0.524903,1.58081 l 0,3.86352 -1.12915,0 0,-6.83594 1.12915,0 0,1.06202 q 0.402832,-0.61646 0.946045,-0.92163 0.549317,-0.30518 1.263428,-0.30518 1.177978,0 1.782226,0.73242 0.604249,0.72632 0.604249,2.14234 z"
         style="font-size:12.5px;text-align:center;text-anchor:middle"
         id="path6993" />
      <path
         d="m 52.753319,758.38196 q 0,-1.22071 -0.506592,-1.89209 -0.500488,-0.67139 -1.409912,-0.67139 -0.90332,0 -1.409912,0.67139 -0.500489,0.67138 -0.500489,1.89209 0,1.2146 0.500489,1.88598 0.506592,0.67139 1.409912,0.67139 0.909424,0 1.409912,-0.67139 0.506592,-0.67138 0.506592,-1.88598 z m 1.123047,2.64892 q 0,1.74561 -0.775147,2.594 -0.775146,0.85449 -2.374267,0.85449 -0.592041,0 -1.116944,-0.0915 -0.524902,-0.0855 -1.019287,-0.26856 l 0,-1.09253 q 0.494385,0.26856 0.976563,0.39673 0.482177,0.12818 0.982666,0.12818 1.104736,0 1.654052,-0.57984 0.549317,-0.57373 0.549317,-1.7395 l 0,-0.55542 q -0.347901,0.60425 -0.891113,0.90332 -0.543213,0.29907 -1.300049,0.29907 -1.257325,0 -2.026368,-0.95825 -0.769042,-0.95825 -0.769042,-2.53906 0,-1.58692 0.769042,-2.54517 0.769043,-0.95825 2.026368,-0.95825 0.756836,0 1.300049,0.29907 0.543212,0.29907 0.891113,0.90332 l 0,-1.0376 1.123047,0 0,5.98755 z"
         style="font-size:12.5px;text-align:center;text-anchor:middle"
         id="path6995" />
      <path
         d="m 14.50869,771.70593 0,-3.69873 1.123047,0 0,9.49707 -1.123047,0 0,-1.02539 q -0.354004,0.61035 -0.897217,0.90943 -0.537109,0.29296 -1.293945,0.29296 -1.239014,0 -2.020264,-0.98877 -0.7751464,-0.98876 -0.7751464,-2.60009 0,-1.61133 0.7751464,-2.6001 0.78125,-0.98877 2.020264,-0.98877 0.756836,0 1.293945,0.29907 0.543213,0.29297 0.897217,0.90332 z m -3.826904,2.38648 q 0,1.23901 0.506591,1.94702 0.512696,0.7019 1.403809,0.7019 0.891113,0 1.403809,-0.7019 0.512695,-0.70801 0.512695,-1.94702 0,-1.23902 -0.512695,-1.94092 -0.512696,-0.70801 -1.403809,-0.70801 -0.891113,0 -1.403809,0.70801 -0.506591,0.7019 -0.506591,1.94092 z"
         style="font-size:12.5px;text-align:center;text-anchor:middle"
         id="path6997" />
      <path
         d="m 17.944969,770.66833 1.123047,0 0,6.83594 -1.123047,0 0,-6.83594 z m 0,-2.66113 1.123047,0 0,1.42212 -1.123047,0 0,-1.42212 z"
         style="font-size:12.5px;text-align:center;text-anchor:middle"
         id="path6999" />
      <path
         d="m 25.769676,770.86975 0,1.06201 q -0.476074,-0.24414 -0.988769,-0.36621 -0.512696,-0.12207 -1.062012,-0.12207 -0.836182,0 -1.257324,0.25635 -0.415039,0.25635 -0.415039,0.76904 0,0.39063 0.299072,0.61646 0.299072,0.21972 1.202393,0.42114 l 0.384521,0.0854 q 1.196289,0.25635 1.696777,0.72632 0.506592,0.46386 0.506592,1.30005 0,0.95214 -0.756836,1.50756 -0.750732,0.55542 -2.069092,0.55542 -0.549316,0 -1.147461,-0.10986 -0.592041,-0.10376 -1.25122,-0.31738 l 0,-1.15967 q 0.622558,0.32349 1.226806,0.48828 0.604248,0.15869 1.196289,0.15869 0.793458,0 1.220704,-0.26855 0.427246,-0.27466 0.427246,-0.76904 0,-0.45777 -0.31128,-0.70191 -0.305175,-0.24414 -1.348877,-0.46997 l -0.390625,-0.0916 q -1.043701,-0.21973 -1.507568,-0.67139 -0.463867,-0.45776 -0.463867,-1.25122 0,-0.96436 0.683594,-1.48926 0.683593,-0.5249 1.940918,-0.5249 0.622558,0 1.171875,0.0915 0.549316,0.0916 1.013183,0.27466 z"
         style="font-size:12.5px;text-align:center;text-anchor:middle"
         id="path7001" />
      <path
         d="m 29.041161,768.72742 0,1.94091 2.313232,0 0,0.87281 -2.313232,0 0,3.71094 q 0,0.83618 0.22583,1.07421 0.231933,0.23804 0.933838,0.23804 l 1.153564,0 0,0.93994 -1.153564,0 q -1.300049,0 -1.794434,-0.48218 -0.494385,-0.48828 -0.494385,-1.77001 l 0,-3.71094 -0.823974,0 0,-0.87281 0.823974,0 0,-1.94091 1.129151,0 z"
         style="font-size:12.5px;text-align:center;text-anchor:middle"
         id="path7003" />
      <path
         d="m 35.944237,774.06799 q -1.361084,0 -1.885987,0.31128 -0.524902,0.31128 -0.524902,1.06201 0,0.59815 0.390625,0.95215 0.396729,0.3479 1.074219,0.3479 0.933838,0 1.495361,-0.65918 0.567627,-0.66528 0.567627,-1.76391 l 0,-0.25025 -1.116943,0 z m 2.23999,-0.46386 0,3.90014 -1.123047,0 0,-1.0376 q -0.384521,0.62256 -0.958252,0.92164 -0.57373,0.29296 -1.403808,0.29296 -1.049805,0 -1.672364,-0.58593 -0.616455,-0.59204 -0.616455,-1.58081 0,-1.15357 0.769043,-1.73951 0.775147,-0.58593 2.307129,-0.58593 l 1.574707,0 0,-0.10987 q 0,-0.77514 -0.512695,-1.19629 -0.506592,-0.42724 -1.428223,-0.42724 -0.585937,0 -1.141357,0.14038 -0.55542,0.14038 -1.068116,0.42114 l 0,-1.0376 q 0.616456,-0.23803 1.19629,-0.354 0.579834,-0.12207 1.12915,-0.12207 1.483154,0 2.215576,0.76904 0.732422,0.76905 0.732422,2.33155 z"
         style="font-size:12.5px;text-align:center;text-anchor:middle"
         id="path7005" />
      <path
         d="m 46.21035,773.3783 0,4.12597 -1.123047,0 0,-4.08935 q 0,-0.97046 -0.378418,-1.45264 -0.378418,-0.48218 -1.135254,-0.48218 -0.909424,0 -1.434326,0.57984 -0.524902,0.57983 -0.524902,1.58081 l 0,3.86352 -1.129151,0 0,-6.83594 1.129151,0 0,1.06202 q 0.402832,-0.61646 0.946045,-0.92163 0.549316,-0.30518 1.263427,-0.30518 1.177979,0 1.782227,0.73242 0.604248,0.72632 0.604248,2.14234 z"
         style="font-size:12.5px;text-align:center;text-anchor:middle"
         id="path7007" />
      <path
         d="m 53.381981,770.93079 0,1.0498 q -0.476074,-0.26245 -0.958252,-0.39062 -0.476074,-0.13428 -0.964356,-0.13428 -1.092529,0 -1.696777,0.6958 -0.604248,0.6897 -0.604248,1.94092 0,1.25122 0.604248,1.94702 0.604248,0.6897 1.696777,0.6897 0.488282,0 0.964356,-0.12818 0.482178,-0.13428 0.958252,-0.39673 l 0,1.0376 q -0.469971,0.21973 -0.976563,0.32959 -0.500488,0.10986 -1.068115,0.10986 -1.544189,0 -2.453613,-0.97045 -0.909424,-0.97046 -0.909424,-2.61841 0,-1.67237 0.915527,-2.63062 0.921631,-0.95825 2.520752,-0.95825 0.518799,0 1.013184,0.10986 0.494385,0.10376 0.958252,0.31739 z"
         style="font-size:12.5px;text-align:center;text-anchor:middle"
         id="path7009" />
      <path
         d="m 61.170067,773.80554 0,0.54932 -5.163574,0 q 0.07324,1.15967 0.6958,1.77002 0.628663,0.60425 1.745606,0.60425 0.646973,0 1.251221,-0.1587 0.610351,-0.15869 1.208496,-0.47607 l 0,1.06201 q -0.604248,0.25635 -1.239014,0.39063 -0.634766,0.13427 -1.287842,0.13427 -1.635742,0 -2.593994,-0.95214 -0.952148,-0.95215 -0.952148,-2.57569 0,-1.67846 0.90332,-2.66113 0.909424,-0.98877 2.44751,-0.98877 1.379394,0 2.178955,0.89111 0.805664,0.88501 0.805664,2.41089 z m -1.123047,-0.32959 q -0.01221,-0.92163 -0.518799,-1.47095 -0.500488,-0.54931 -1.330566,-0.54931 -0.939942,0 -1.507569,0.531 -0.561523,0.53101 -0.646972,1.49537 l 4.003906,-0.006 z"
         style="font-size:12.5px;text-align:center;text-anchor:middle"
         id="path7011" />
    </g>
    <g
       style="font-style:normal;font-weight:normal;font-size:40px;line-height:125%;font-family:Sans;letter-spacing:0px;word-spacing:0px;fill:#000000;fill-opacity:1;stroke:none;stroke-width:1px;stroke-linecap:butt;stroke-linejoin:miter;stroke-opacity:1"
       id="text6793-0">
      <path
         d="m 20.270409,914.3822 0,0.93384 -1.074219,0 q -0.604248,0 -0.842285,0.24414 -0.231934,0.24414 -0.231934,0.87891 l 0,0.60424 1.849365,0 0,0.87281 -1.849365,0 0,5.96313 -1.12915,0 0,-5.96313 -1.074219,0 0,-0.87281 1.074219,0 0,-0.47607 q 0,-1.14136 0.531006,-1.66016 0.531005,-0.5249 1.68457,-0.5249 l 1.062012,0 z"
         style="font-size:12.5px;text-align:center;text-anchor:middle"
         id="path6943" />
      <path
         d="m 24.33535,920.44299 q -1.361084,0 -1.885986,0.31128 -0.524903,0.31128 -0.524903,1.06201 0,0.59815 0.390625,0.95215 0.396729,0.3479 1.074219,0.3479 0.933838,0 1.495361,-0.65918 0.567627,-0.66528 0.567627,-1.76391 l 0,-0.25025 -1.116943,0 z m 2.23999,-0.46386 0,3.90014 -1.123047,0 0,-1.0376 q -0.384521,0.62256 -0.958252,0.92164 -0.57373,0.29296 -1.403808,0.29296 -1.049805,0 -1.672363,-0.58593 -0.616456,-0.59204 -0.616456,-1.58081 0,-1.15357 0.769043,-1.73951 0.775147,-0.58593 2.307129,-0.58593 l 1.574707,0 0,-0.10987 q 0,-0.77514 -0.512695,-1.19629 -0.506592,-0.42724 -1.428223,-0.42724 -0.585937,0 -1.141357,0.14038 -0.55542,0.14038 -1.068115,0.42114 l 0,-1.0376 q 0.616455,-0.23803 1.196289,-0.354 0.579834,-0.12207 1.12915,-0.12207 1.483155,0 2.215576,0.76904 0.732422,0.76905 0.732422,2.33155 z"
         style="font-size:12.5px;text-align:center;text-anchor:middle"
         id="path6945" />
      <path
         d="m 33.417381,918.08093 0,-3.69873 1.123047,0 0,9.49707 -1.123047,0 0,-1.02539 q -0.354004,0.61035 -0.897217,0.90943 -0.537109,0.29296 -1.293945,0.29296 -1.239013,0 -2.020263,-0.98877 -0.775147,-0.98876 -0.775147,-2.60009 0,-1.61133 0.775147,-2.6001 0.78125,-0.98877 2.020263,-0.98877 0.756836,0 1.293945,0.29907 0.543213,0.29297 0.897217,0.90332 z m -3.826904,2.38648 q 0,1.23901 0.506592,1.94702 0.512695,0.7019 1.403808,0.7019 0.891114,0 1.403809,-0.7019 0.512695,-0.70801 0.512695,-1.94702 0,-1.23902 -0.512695,-1.94092 -0.512695,-0.70801 -1.403809,-0.70801 -0.891113,0 -1.403808,0.70801 -0.506592,0.7019 -0.506592,1.94092 z"
         style="font-size:12.5px;text-align:center;text-anchor:middle"
         id="path6947" />
      <path
         d="m 36.853661,917.04333 1.123046,0 0,6.83594 -1.123046,0 0,-6.83594 z m 0,-2.66113 1.123046,0 0,1.42212 -1.123046,0 0,-1.42212 z"
         style="font-size:12.5px;text-align:center;text-anchor:middle"
         id="path6949" />
      <path
         d="m 46.002831,919.7533 0,4.12597 -1.123047,0 0,-4.08935 q 0,-0.97046 -0.378418,-1.45264 -0.378418,-0.48218 -1.135254,-0.48218 -0.909424,0 -1.434326,0.57984 -0.524903,0.57983 -0.524903,1.58081 l 0,3.86352 -1.12915,0 0,-6.83594 1.12915,0 0,1.06202 q 0.402832,-0.61646 0.946045,-0.92163 0.549317,-0.30518 1.263428,-0.30518 1.177978,0 1.782226,0.73242 0.604249,0.72632 0.604249,2.14234 z"
         style="font-size:12.5px;text-align:center;text-anchor:middle"
         id="path6951" />
      <path
         d="m 52.753319,920.38196 q 0,-1.22071 -0.506592,-1.89209 -0.500488,-0.67139 -1.409912,-0.67139 -0.90332,0 -1.409912,0.67139 -0.500489,0.67138 -0.500489,1.89209 0,1.2146 0.500489,1.88598 0.506592,0.67139 1.409912,0.67139 0.909424,0 1.409912,-0.67139 0.506592,-0.67138 0.506592,-1.88598 z m 1.123047,2.64892 q 0,1.74561 -0.775147,2.594 -0.775146,0.85449 -2.374267,0.85449 -0.592041,0 -1.116944,-0.0915 -0.524902,-0.0855 -1.019287,-0.26856 l 0,-1.09253 q 0.494385,0.26856 0.976563,0.39673 0.482177,0.12818 0.982666,0.12818 1.104736,0 1.654052,-0.57984 0.549317,-0.57373 0.549317,-1.7395 l 0,-0.55542 q -0.347901,0.60425 -0.891113,0.90332 -0.543213,0.29907 -1.300049,0.29907 -1.257325,0 -2.026368,-0.95825 -0.769042,-0.95825 -0.769042,-2.53906 0,-1.58692 0.769042,-2.54517 0.769043,-0.95825 2.026368,-0.95825 0.756836,0 1.300049,0.29907 0.543212,0.29907 0.891113,0.90332 l 0,-1.0376 1.123047,0 0,5.98755 z"
         style="font-size:12.5px;text-align:center;text-anchor:middle"
         id="path6953" />
      <path
         d="m 14.50869,933.70593 0,-3.69873 1.123047,0 0,9.49707 -1.123047,0 0,-1.02539 q -0.354004,0.61035 -0.897217,0.90943 -0.537109,0.29296 -1.293945,0.29296 -1.239014,0 -2.020264,-0.98877 -0.7751464,-0.98876 -0.7751464,-2.60009 0,-1.61133 0.7751464,-2.6001 0.78125,-0.98877 2.020264,-0.98877 0.756836,0 1.293945,0.29907 0.543213,0.29297 0.897217,0.90332 z m -3.826904,2.38648 q 0,1.23901 0.506591,1.94702 0.512696,0.7019 1.403809,0.7019 0.891113,0 1.403809,-0.7019 0.512695,-0.70801 0.512695,-1.94702 0,-1.23902 -0.512695,-1.94092 -0.512696,-0.70801 -1.403809,-0.70801 -0.891113,0 -1.403809,0.70801 -0.506591,0.7019 -0.506591,1.94092 z"
         style="font-size:12.5px;text-align:center;text-anchor:middle"
         id="path6955" />
      <path
         d="m 17.944969,932.66833 1.123047,0 0,6.83594 -1.123047,0 0,-6.83594 z m 0,-2.66113 1.123047,0 0,1.42212 -1.123047,0 0,-1.42212 z"
         style="font-size:12.5px;text-align:center;text-anchor:middle"
         id="path6957" />
      <path
         d="m 25.769676,932.86975 0,1.06201 q -0.476074,-0.24414 -0.988769,-0.36621 -0.512696,-0.12207 -1.062012,-0.12207 -0.836182,0 -1.257324,0.25635 -0.415039,0.25635 -0.415039,0.76904 0,0.39063 0.299072,0.61646 0.299072,0.21972 1.202393,0.42114 l 0.384521,0.0854 q 1.196289,0.25635 1.696777,0.72632 0.506592,0.46386 0.506592,1.30005 0,0.95214 -0.756836,1.50756 -0.750732,0.55542 -2.069092,0.55542 -0.549316,0 -1.147461,-0.10986 -0.592041,-0.10376 -1.25122,-0.31738 l 0,-1.15967 q 0.622558,0.32349 1.226806,0.48828 0.604248,0.15869 1.196289,0.15869 0.793458,0 1.220704,-0.26855 0.427246,-0.27466 0.427246,-0.76904 0,-0.45777 -0.31128,-0.70191 -0.305175,-0.24414 -1.348877,-0.46997 l -0.390625,-0.0916 q -1.043701,-0.21973 -1.507568,-0.67139 -0.463867,-0.45776 -0.463867,-1.25122 0,-0.96436 0.683594,-1.48926 0.683593,-0.5249 1.940918,-0.5249 0.622558,0 1.171875,0.0915 0.549316,0.0916 1.013183,0.27466 z"
         style="font-size:12.5px;text-align:center;text-anchor:middle"
         id="path6959" />
      <path
         d="m 29.041161,930.72742 0,1.94091 2.313232,0 0,0.87281 -2.313232,0 0,3.71094 q 0,0.83618 0.22583,1.07421 0.231933,0.23804 0.933838,0.23804 l 1.153564,0 0,0.93994 -1.153564,0 q -1.300049,0 -1.794434,-0.48218 -0.494385,-0.48828 -0.494385,-1.77001 l 0,-3.71094 -0.823974,0 0,-0.87281 0.823974,0 0,-1.94091 1.129151,0 z"
         style="font-size:12.5px;text-align:center;text-anchor:middle"
         id="path6961" />
      <path
         d="m 35.944237,936.06799 q -1.361084,0 -1.885987,0.31128 -0.524902,0.31128 -0.524902,1.06201 0,0.59815 0.390625,0.95215 0.396729,0.3479 1.074219,0.3479 0.933838,0 1.495361,-0.65918 0.567627,-0.66528 0.567627,-1.76391 l 0,-0.25025 -1.116943,0 z m 2.23999,-0.46386 0,3.90014 -1.123047,0 0,-1.0376 q -0.384521,0.62256 -0.958252,0.92164 -0.57373,0.29296 -1.403808,0.29296 -1.049805,0 -1.672364,-0.58593 -0.616455,-0.59204 -0.616455,-1.58081 0,-1.15357 0.769043,-1.73951 0.775147,-0.58593 2.307129,-0.58593 l 1.574707,0 0,-0.10987 q 0,-0.77514 -0.512695,-1.19629 -0.506592,-0.42724 -1.428223,-0.42724 -0.585937,0 -1.141357,0.14038 -0.55542,0.14038 -1.068116,0.42114 l 0,-1.0376 q 0.616456,-0.23803 1.19629,-0.354 0.579834,-0.12207 1.12915,-0.12207 1.483154,0 2.215576,0.76904 0.732422,0.76905 0.732422,2.33155 z"
         style="font-size:12.5px;text-align:center;text-anchor:middle"
         id="path6963" />
      <path
         d="m 46.21035,935.3783 0,4.12597 -1.123047,0 0,-4.08935 q 0,-0.97046 -0.378418,-1.45264 -0.378418,-0.48218 -1.135254,-0.48218 -0.909424,0 -1.434326,0.57984 -0.524902,0.57983 -0.524902,1.58081 l 0,3.86352 -1.129151,0 0,-6.83594 1.129151,0 0,1.06202 q 0.402832,-0.61646 0.946045,-0.92163 0.549316,-0.30518 1.263427,-0.30518 1.177979,0 1.782227,0.73242 0.604248,0.72632 0.604248,2.14234 z"
         style="font-size:12.5px;text-align:center;text-anchor:middle"
         id="path6965" />
      <path
         d="m 53.381981,932.93079 0,1.0498 q -0.476074,-0.26245 -0.958252,-0.39062 -0.476074,-0.13428 -0.964356,-0.13428 -1.092529,0 -1.696777,0.6958 -0.604248,0.6897 -0.604248,1.94092 0,1.25122 0.604248,1.94702 0.604248,0.6897 1.696777,0.6897 0.488282,0 0.964356,-0.12818 0.482178,-0.13428 0.958252,-0.39673 l 0,1.0376 q -0.469971,0.21973 -0.976563,0.32959 -0.500488,0.10986 -1.068115,0.10986 -1.544189,0 -2.453613,-0.97045 -0.909424,-0.97046 -0.909424,-2.61841 0,-1.67237 0.915527,-2.63062 0.921631,-0.95825 2.520752,-0.95825 0.518799,0 1.013184,0.10986 0.494385,0.10376 0.958252,0.31739 z"
         style="font-size:12.5px;text-align:center;text-anchor:middle"
         id="path6967" />
      <path
         d="m 61.170067,935.80554 0,0.54932 -5.163574,0 q 0.07324,1.15967 0.6958,1.77002 0.628663,0.60425 1.745606,0.60425 0.646973,0 1.251221,-0.1587 0.610351,-0.15869 1.208496,-0.47607 l 0,1.06201 q -0.604248,0.25635 -1.239014,0.39063 -0.634766,0.13427 -1.287842,0.13427 -1.635742,0 -2.593994,-0.95214 -0.952148,-0.95215 -0.952148,-2.57569 0,-1.67846 0.90332,-2.66113 0.909424,-0.98877 2.44751,-0.98877 1.379394,0 2.178955,0.89111 0.805664,0.88501 0.805664,2.41089 z m -1.123047,-0.32959 q -0.01221,-0.92163 -0.518799,-1.47095 -0.500488,-0.54931 -1.330566,-0.54931 -0.939942,0 -1.507569,0.531 -0.561523,0.53101 -0.646972,1.49537 l 4.003906,-0.006 z"
         style="font-size:12.5px;text-align:center;text-anchor:middle"
         id="path6969" />
    </g>
    <path
       style="fill:none;fill-rule:evenodd;stroke:#e1ae26;stroke-width:1.5;stroke-linecap:round;stroke-linejoin:round;stroke-miterlimit:4;stroke-dasharray:3, 6;stroke-dashoffset:0;stroke-opacity:1"
       d="m 569.19624,882.486 -68.91344,0"
       id="path6609-3"
       inkscape:connector-curvature="0" />
    <path
       style="fill:none;fill-rule:evenodd;stroke:#4b4b4b;stroke-width:1.5;stroke-linecap:round;stroke-linejoin:round;stroke-miterlimit:4;stroke-dasharray:3, 6;stroke-dashoffset:0;stroke-opacity:1"
       d="m 569.17087,783.04686 -68.67711,0"
       id="path6609-2-5"
       inkscape:connector-curvature="0" />
    <path
       style="fill:none;fill-rule:evenodd;stroke:#00dd41;stroke-width:1.5;stroke-linecap:round;stroke-linejoin:round;stroke-miterlimit:4;stroke-dasharray:3, 6;stroke-dashoffset:0;stroke-opacity:1"
       d="m 569.31251,831.87994 -68.67712,0"
       id="path6609-2-4-6"
       inkscape:connector-curvature="0" />
    <path
       style="fill:none;fill-rule:evenodd;stroke:#4b4b4b;stroke-width:1.5;stroke-linecap:round;stroke-linejoin:round;stroke-miterlimit:4;stroke-dasharray:3, 6;stroke-dashoffset:0;stroke-opacity:1"
       d="m 569.33788,852.9927 -68.91345,0"
       id="path6609-0-5"
       inkscape:connector-curvature="0" />
    <path
       style="fill:none;fill-rule:evenodd;stroke:#dd3b00;stroke-width:1.5;stroke-linecap:round;stroke-linejoin:round;stroke-miterlimit:4;stroke-dasharray:3, 6;stroke-dashoffset:0;stroke-opacity:1"
       d="m 569.43557,803.13834 -68.91345,0"
       id="path6609-5-8"
       inkscape:connector-curvature="0" />
  </g>
</svg>
