<?xml version="1.0" encoding="UTF-8" standalone="no"?>
<!-- Created with Inkscape (http://www.inkscape.org/) -->

<svg
   xmlns:dc="http://purl.org/dc/elements/1.1/"
   xmlns:cc="http://creativecommons.org/ns#"
   xmlns:rdf="http://www.w3.org/1999/02/22-rdf-syntax-ns#"
   xmlns:svg="http://www.w3.org/2000/svg"
   xmlns="http://www.w3.org/2000/svg"
   xmlns:sodipodi="http://sodipodi.sourceforge.net/DTD/sodipodi-0.dtd"
   xmlns:inkscape="http://www.inkscape.org/namespaces/inkscape"
   width="640"
   height="350"
   viewBox="0 0 639.99999 350"
   id="svg2"
   version="1.1"
   inkscape:version="0.91 r13725"
   sodipodi:docname="scope.svg">
  <defs
     id="defs4" />
  <sodipodi:namedview
     id="base"
     pagecolor="#ffffff"
     bordercolor="#666666"
     borderopacity="1.0"
     inkscape:pageopacity="0.0"
     inkscape:pageshadow="2"
     inkscape:zoom="2.0704087"
     inkscape:cx="403.46823"
     inkscape:cy="160.42311"
     inkscape:document-units="px"
     inkscape:current-layer="layer1"
     showgrid="true"
     units="px"
     showguides="true"
     inkscape:guide-bbox="true"
     gridtolerance="10000"
     inkscape:window-width="1541"
     inkscape:window-height="969"
     inkscape:window-x="20"
     inkscape:window-y="44"
     inkscape:window-maximized="0"
     guidetolerance="10000"
     objecttolerance="10000">
    <inkscape:grid
       type="xygrid"
       id="grid3338"
       empspacing="2"
       spacingx="9.9999998"
       spacingy="9.9999999"
       visible="true"
       enabled="true"
       snapvisiblegridlinesonly="true" />
    <sodipodi:guide
       position="0,350"
       orientation="0,1"
       id="guide3342"
       inkscape:label=""
       inkscape:color="rgb(0,0,255)" />
    <sodipodi:guide
       position="320,500"
       orientation="1,0"
       id="guide3344"
       inkscape:label=""
       inkscape:color="rgb(0,0,255)" />
    <sodipodi:guide
       position="120,500"
       orientation="1,0"
       id="guide3350" />
    <sodipodi:guide
       position="519.99999,500"
       orientation="1,0"
       id="guide3354" />
  </sodipodi:namedview>
  <metadata
     id="metadata7">
    <rdf:RDF>
      <cc:Work
         rdf:about="">
        <dc:format>image/svg+xml</dc:format>
        <dc:type
           rdf:resource="http://purl.org/dc/dcmitype/StillImage" />
        <dc:title />
      </cc:Work>
    </rdf:RDF>
  </metadata>
  <g
     inkscape:groupmode="layer"
     id="layer2"
     inkscape:label="Layer 2"
     transform="translate(0,-650)">
    <rect
       style="opacity:1;fill:#e5e5ea;fill-opacity:1;stroke:none;stroke-width:2;stroke-linecap:round;stroke-linejoin:round;stroke-miterlimit:4;stroke-dasharray:4, 8;stroke-dashoffset:0;stroke-opacity:1"
       id="rect5659"
       width="360"
       height="349.7269"
       x="140"
       y="650.43713" />
  </g>
  <g
     inkscape:label="Layer 1"
     inkscape:groupmode="layer"
     id="layer1"
     transform="translate(0,-702.36227)">
    <rect
       style="opacity:1;fill:#b4b2d8;fill-opacity:1;stroke:none;stroke-width:2;stroke-linecap:round;stroke-linejoin:round;stroke-miterlimit:4;stroke-dasharray:4, 8;stroke-dashoffset:0;stroke-opacity:1"
       id="rect5657"
       width="360"
       height="20.245905"
       x="140.08287"
       y="722.6355" />
    <rect
       style="opacity:0.4;fill:#b4b2d8;fill-opacity:1;stroke:none;stroke-width:2;stroke-linecap:round;stroke-linejoin:round;stroke-miterlimit:4;stroke-dasharray:4, 8;stroke-dashoffset:0;stroke-opacity:1"
       id="rect5657-81"
       width="340.47418"
       height="241.55737"
       x="150.0009"
       y="741.00983" />
    <rect
       style="opacity:1;fill:#a3cca8;fill-opacity:1;stroke:none;stroke-width:2;stroke-linecap:round;stroke-linejoin:round;stroke-miterlimit:4;stroke-dasharray:4, 8;stroke-dashoffset:0;stroke-opacity:1"
       id="rect5657-0"
       width="360"
       height="9.9585667"
       x="140"
       y="772.45746" />
    <rect
       style="opacity:0.506;fill:#a3cca8;fill-opacity:1;stroke:none;stroke-width:2;stroke-linecap:round;stroke-linejoin:round;stroke-miterlimit:4;stroke-dasharray:4, 8;stroke-dashoffset:0;stroke-opacity:1"
       id="rect5657-0-7"
       width="302.45306"
       height="104.22086"
       x="169.31352"
       y="782.35571" />
    <rect
       style="opacity:1;fill:#ccc4a3;fill-opacity:1;stroke:none;stroke-width:2;stroke-linecap:round;stroke-linejoin:round;stroke-miterlimit:4;stroke-dasharray:4, 8;stroke-dashoffset:0;stroke-opacity:1"
       id="rect5657-0-5"
       width="360"
       height="9.9585667"
       x="139.74364"
       y="882.5191" />
    <rect
       style="opacity:0.506;fill:#ccc4a3;fill-opacity:1;stroke:none;stroke-width:2;stroke-linecap:round;stroke-linejoin:round;stroke-miterlimit:4;stroke-dasharray:4, 8;stroke-dashoffset:0;stroke-opacity:1"
       id="rect5657-0-5-8"
       width="300.4382"
       height="95.34108"
       x="170.23293"
       y="892.42346" />
    <rect
       style="opacity:1;fill:#d4a8cc;fill-opacity:1;stroke:none;stroke-width:2;stroke-linecap:round;stroke-linejoin:round;stroke-miterlimit:4;stroke-dasharray:4, 8;stroke-dashoffset:0;stroke-opacity:1"
       id="rect5657-8"
       width="360"
       height="20.245905"
       x="140.10049"
       y="983.00702" />
    <rect
       style="opacity:0.51399997;fill:#d4a8cc;fill-opacity:1;stroke:none;stroke-width:2;stroke-linecap:round;stroke-linejoin:round;stroke-miterlimit:4;stroke-dasharray:4, 8;stroke-dashoffset:0;stroke-opacity:1"
       id="rect5657-8-5"
       width="340.53278"
       height="55.08197"
       x="149.39011"
       y="997.69281" />
    <path
       style="fill:none;fill-rule:evenodd;stroke:#4b4b4b;stroke-width:1.5;stroke-linecap:round;stroke-linejoin:round;stroke-miterlimit:4;stroke-dasharray:3,6;stroke-dashoffset:0;stroke-opacity:1"
       d="m 0.80107823,982.36227 139.07798177,0"
       id="path6609"
       inkscape:connector-curvature="0" />
    <path
       style="fill:none;fill-rule:evenodd;stroke:#4b4b4b;stroke-width:1.5;stroke-linecap:round;stroke-linejoin:round;stroke-miterlimit:4;stroke-dasharray:3,6;stroke-dashoffset:0;stroke-opacity:1"
       d="m 0.85227628,743.17059 138.60103372,0"
       id="path6609-2"
       inkscape:connector-curvature="0" />
    <g
       style="font-style:normal;font-weight:normal;font-size:40px;line-height:125%;font-family:Sans;letter-spacing:0px;word-spacing:0px;fill:#4b4b4b;fill-opacity:1;stroke:none;stroke-width:1px;stroke-linecap:butt;stroke-linejoin:miter;stroke-opacity:1"
       id="text6626">
      <path
         d="m 18.697333,759.29047 q 0,-1.23902 -0.512695,-1.94092 -0.506592,-0.70801 -1.397705,-0.70801 -0.891113,0 -1.403809,0.70801 -0.506591,0.7019 -0.506591,1.94092 0,1.23901 0.506591,1.94702 0.512696,0.7019 1.403809,0.7019 0.891113,0 1.397705,-0.7019 0.512695,-0.70801 0.512695,-1.94702 z m -3.8208,-2.38648 q 0.354003,-0.61035 0.891113,-0.90332 0.543213,-0.29907 1.293945,-0.29907 1.245117,0 2.020264,0.98877 0.78125,0.98877 0.78125,2.6001 0,1.61132 -0.78125,2.60009 -0.775147,0.98877 -2.020264,0.98877 -0.750732,0 -1.293945,-0.29297 -0.53711,-0.29907 -0.891113,-0.90942 l 0,1.02539 -1.129151,0 0,-9.49707 1.129151,0 0,3.69873 z"
         style="font-size:12.5px;fill:#4b4b4b;fill-opacity:1"
         id="path6656" />
      <path
         d="m 27.571845,759.0036 0,0.54932 -5.163574,0 q 0.07324,1.15967 0.695801,1.77002 0.628662,0.60425 1.745605,0.60425 0.646973,0 1.251221,-0.1587 0.610351,-0.15869 1.208496,-0.47607 l 0,1.06201 q -0.604248,0.25635 -1.239014,0.39063 -0.634765,0.13427 -1.287842,0.13427 -1.635742,0 -2.593994,-0.95214 -0.952148,-0.95215 -0.952148,-2.57569 0,-1.67847 0.90332,-2.66113 0.909424,-0.98877 2.44751,-0.98877 1.379394,0 2.178955,0.89111 0.805664,0.88501 0.805664,2.41089 z m -1.123047,-0.32959 q -0.01221,-0.92163 -0.518799,-1.47095 -0.500488,-0.54931 -1.330566,-0.54931 -0.939941,0 -1.507568,0.531 -0.561524,0.53101 -0.646973,1.49536 l 4.003906,-0.006 z"
         style="font-size:12.5px;fill:#4b4b4b;fill-opacity:1"
         id="path6658" />
      <path
         d="m 33.888984,759.20502 q 0,-1.22071 -0.506592,-1.89209 -0.500488,-0.67139 -1.409912,-0.67139 -0.90332,0 -1.409912,0.67139 -0.500489,0.67138 -0.500489,1.89209 0,1.2146 0.500489,1.88598 0.506592,0.67139 1.409912,0.67139 0.909424,0 1.409912,-0.67139 0.506592,-0.67138 0.506592,-1.88598 z m 1.123047,2.64892 q 0,1.74561 -0.775147,2.594 -0.775146,0.85449 -2.374267,0.85449 -0.592041,0 -1.116944,-0.0915 -0.524902,-0.0854 -1.019287,-0.26856 l 0,-1.09253 q 0.494385,0.26856 0.976563,0.39673 0.482177,0.12817 0.982666,0.12817 1.104736,0 1.654052,-0.57983 0.549317,-0.57373 0.549317,-1.7395 l 0,-0.55542 q -0.347901,0.60425 -0.891114,0.90332 -0.543212,0.29907 -1.300048,0.29907 -1.257325,0 -2.026368,-0.95825 -0.769043,-0.95825 -0.769043,-2.53906 0,-1.58692 0.769043,-2.54517 0.769043,-0.95825 2.026368,-0.95825 0.756836,0 1.300048,0.29907 0.543213,0.29907 0.891114,0.90332 l 0,-1.0376 1.123047,0 0,5.98755 z"
         style="font-size:12.5px;fill:#4b4b4b;fill-opacity:1"
         id="path6660" />
      <path
         d="m 37.325263,755.86639 1.123047,0 0,6.83594 -1.123047,0 0,-6.83594 z m 0,-2.66113 1.123047,0 0,1.42212 -1.123047,0 0,-1.42212 z"
         style="font-size:12.5px;fill:#4b4b4b;fill-opacity:1"
         id="path6662" />
      <path
         d="m 46.474433,758.57635 0,4.12598 -1.123047,0 0,-4.08935 q 0,-0.97046 -0.378418,-1.45264 -0.378418,-0.48218 -1.135254,-0.48218 -0.909424,0 -1.434326,0.57984 -0.524902,0.57983 -0.524902,1.58081 l 0,3.86352 -1.129151,0 0,-6.83594 1.129151,0 0,1.06202 q 0.402832,-0.61646 0.946045,-0.92164 0.549316,-0.30517 1.263427,-0.30517 1.177979,0 1.782227,0.73242 0.604248,0.72632 0.604248,2.14233 z"
         style="font-size:12.5px;fill:#4b4b4b;fill-opacity:1"
         id="path6664" />
      <path
         d="m 54.409003,758.57635 0,4.12598 -1.123047,0 0,-4.08935 q 0,-0.97046 -0.378418,-1.45264 -0.378418,-0.48218 -1.135253,-0.48218 -0.909424,0 -1.434327,0.57984 -0.524902,0.57983 -0.524902,1.58081 l 0,3.86352 -1.12915,0 0,-6.83594 1.12915,0 0,1.06202 q 0.402832,-0.61646 0.946045,-0.92164 0.549316,-0.30517 1.263428,-0.30517 1.177978,0 1.782226,0.73242 0.604248,0.72632 0.604248,2.14233 z"
         style="font-size:12.5px;fill:#4b4b4b;fill-opacity:1"
         id="path6666" />
      <path
         d="m 56.661201,755.86639 1.123046,0 0,6.83594 -1.123046,0 0,-6.83594 z m 0,-2.66113 1.123046,0 0,1.42212 -1.123046,0 0,-1.42212 z"
         style="font-size:12.5px;fill:#4b4b4b;fill-opacity:1"
         id="path6668" />
      <path
         d="m 65.81037,758.57635 0,4.12598 -1.123046,0 0,-4.08935 q 0,-0.97046 -0.378418,-1.45264 -0.378418,-0.48218 -1.135254,-0.48218 -0.909424,0 -1.434326,0.57984 -0.524903,0.57983 -0.524903,1.58081 l 0,3.86352 -1.12915,0 0,-6.83594 1.12915,0 0,1.06202 q 0.402832,-0.61646 0.946045,-0.92164 0.549317,-0.30517 1.263428,-0.30517 1.177978,0 1.782226,0.73242 0.604248,0.72632 0.604248,2.14233 z"
         style="font-size:12.5px;fill:#4b4b4b;fill-opacity:1"
         id="path6670" />
      <path
         d="m 72.560859,759.20502 q 0,-1.22071 -0.506592,-1.89209 -0.500488,-0.67139 -1.409912,-0.67139 -0.90332,0 -1.409912,0.67139 -0.500489,0.67138 -0.500489,1.89209 0,1.2146 0.500489,1.88598 0.506592,0.67139 1.409912,0.67139 0.909424,0 1.409912,-0.67139 0.506592,-0.67138 0.506592,-1.88598 z m 1.123047,2.64892 q 0,1.74561 -0.775147,2.594 -0.775146,0.85449 -2.374267,0.85449 -0.592041,0 -1.116944,-0.0915 -0.524902,-0.0854 -1.019287,-0.26856 l 0,-1.09253 q 0.494385,0.26856 0.976563,0.39673 0.482177,0.12817 0.982666,0.12817 1.104736,0 1.654052,-0.57983 0.549317,-0.57373 0.549317,-1.7395 l 0,-0.55542 q -0.347901,0.60425 -0.891114,0.90332 -0.543212,0.29907 -1.300048,0.29907 -1.257325,0 -2.026368,-0.95825 -0.769043,-0.95825 -0.769043,-2.53906 0,-1.58692 0.769043,-2.54517 0.769043,-0.95825 2.026368,-0.95825 0.756836,0 1.300048,0.29907 0.543213,0.29907 0.891114,0.90332 l 0,-1.0376 1.123047,0 0,5.98755 z"
         style="font-size:12.5px;fill:#4b4b4b;fill-opacity:1"
         id="path6672" />
      <path
         d="m 82.625556,756.65375 q -0.90332,0 -1.428223,0.70801 -0.524902,0.7019 -0.524902,1.92871 0,1.2268 0.518799,1.93481 0.524902,0.70191 1.434326,0.70191 0.897217,0 1.422119,-0.70801 0.524902,-0.70801 0.524902,-1.92871 0,-1.2146 -0.524902,-1.92261 -0.524902,-0.71411 -1.422119,-0.71411 z m 0,-0.95215 q 1.464844,0 2.301025,0.95215 0.836182,0.95215 0.836182,2.63672 0,1.67846 -0.836182,2.63672 -0.836181,0.95214 -2.301025,0.95214 -1.470947,0 -2.307129,-0.95214 -0.830078,-0.95826 -0.830078,-2.63672 0,-1.68457 0.830078,-2.63672 0.836182,-0.95215 2.307129,-0.95215 z"
         style="font-size:12.5px;fill:#4b4b4b;fill-opacity:1"
         id="path6674" />
      <path
         d="m 91.078925,753.20526 0,0.93384 -1.074219,0 q -0.604248,0 -0.842285,0.24414 -0.231933,0.24414 -0.231933,0.87891 l 0,0.60424 1.849365,0 0,0.87281 -1.849365,0 0,5.96313 -1.129151,0 0,-5.96313 -1.074219,0 0,-0.87281 1.074219,0 0,-0.47607 q 0,-1.14136 0.531006,-1.66016 0.531006,-0.5249 1.68457,-0.5249 l 1.062012,0 z"
         style="font-size:12.5px;fill:#4b4b4b;fill-opacity:1"
         id="path6676" />
      <path
         d="m 100.37458,756.06781 0,1.06201 q -0.476075,-0.24414 -0.98877,-0.36621 -0.512695,-0.12207 -1.062012,-0.12207 -0.836181,0 -1.257324,0.25635 -0.415039,0.25635 -0.415039,0.76904 0,0.39063 0.299072,0.61646 0.299072,0.21972 1.202393,0.42114 l 0.384521,0.0855 q 1.196289,0.25635 1.696779,0.72632 0.50659,0.46386 0.50659,1.30005 0,0.95214 -0.756836,1.50756 -0.750732,0.55542 -2.069091,0.55542 -0.549317,0 -1.147461,-0.10986 -0.592041,-0.10376 -1.251221,-0.31738 l 0,-1.15967 q 0.622559,0.32349 1.226807,0.48828 0.604248,0.15869 1.196289,0.15869 0.793457,0 1.220703,-0.26855 0.427246,-0.27466 0.427246,-0.76905 0,-0.45776 -0.311279,-0.7019 -0.305176,-0.24414 -1.348877,-0.46997 l -0.390625,-0.0915 q -1.043702,-0.21973 -1.507569,-0.67139 -0.463867,-0.45776 -0.463867,-1.25122 0,-0.96436 0.683594,-1.48926 0.683594,-0.5249 1.940918,-0.5249 0.622558,0 1.171875,0.0915 0.549316,0.0915 1.013184,0.27466 z"
         style="font-size:12.5px;fill:#4b4b4b;fill-opacity:1"
         id="path6678" />
      <path
         d="m 107.45466,756.12885 0,1.0498 q -0.47608,-0.26245 -0.95825,-0.39063 -0.47608,-0.13427 -0.96436,-0.13427 -1.09253,0 -1.69678,0.6958 -0.60425,0.6897 -0.60425,1.94092 0,1.25122 0.60425,1.94702 0.60425,0.6897 1.69678,0.6897 0.48828,0 0.96436,-0.12818 0.48217,-0.13428 0.95825,-0.39673 l 0,1.0376 q -0.46997,0.21973 -0.97656,0.32959 -0.50049,0.10986 -1.06812,0.10986 -1.54419,0 -2.45361,-0.97046 -0.90943,-0.97045 -0.90943,-2.6184 0,-1.67237 0.91553,-2.63062 0.92163,-0.95825 2.52075,-0.95825 0.5188,0 1.01319,0.10986 0.49438,0.10376 0.95825,0.31739 z"
         style="font-size:12.5px;fill:#4b4b4b;fill-opacity:1"
         id="path6680" />
      <path
         d="m 112.0445,756.65375 q -0.90332,0 -1.42822,0.70801 -0.5249,0.7019 -0.5249,1.92871 0,1.2268 0.5188,1.93481 0.5249,0.70191 1.43432,0.70191 0.89722,0 1.42212,-0.70801 0.5249,-0.70801 0.5249,-1.92871 0,-1.2146 -0.5249,-1.92261 -0.5249,-0.71411 -1.42212,-0.71411 z m 0,-0.95215 q 1.46485,0 2.30103,0.95215 0.83618,0.95215 0.83618,2.63672 0,1.67846 -0.83618,2.63672 -0.83618,0.95214 -2.30103,0.95214 -1.47095,0 -2.30713,-0.95214 -0.83008,-0.95826 -0.83008,-2.63672 0,-1.68457 0.83008,-2.63672 0.83618,-0.95215 2.30713,-0.95215 z"
         style="font-size:12.5px;fill:#4b4b4b;fill-opacity:1"
         id="path6682" />
      <path
         d="m 118.1236,761.67694 0,3.62549 -1.12915,0 0,-9.43604 1.12915,0 0,1.0376 q 0.35401,-0.61035 0.89112,-0.90332 0.54321,-0.29907 1.29394,-0.29907 1.24512,0 2.02027,0.98877 0.78125,0.98877 0.78125,2.6001 0,1.61132 -0.78125,2.60009 -0.77515,0.98877 -2.02027,0.98877 -0.75073,0 -1.29394,-0.29297 -0.53711,-0.29907 -0.89112,-0.90942 z m 3.8208,-2.38647 q 0,-1.23902 -0.51269,-1.94092 -0.50659,-0.70801 -1.39771,-0.70801 -0.89111,0 -1.40381,0.70801 -0.50659,0.7019 -0.50659,1.94092 0,1.23901 0.50659,1.94702 0.5127,0.7019 1.40381,0.7019 0.89112,0 1.39771,-0.7019 0.51269,-0.70801 0.51269,-1.94702 z"
         style="font-size:12.5px;fill:#4b4b4b;fill-opacity:1"
         id="path6684" />
      <path
         d="m 130.81892,759.0036 0,0.54932 -5.16358,0 q 0.0732,1.15967 0.6958,1.77002 0.62866,0.60425 1.74561,0.60425 0.64697,0 1.25122,-0.1587 0.61035,-0.15869 1.20849,-0.47607 l 0,1.06201 q -0.60424,0.25635 -1.23901,0.39063 -0.63477,0.13427 -1.28784,0.13427 -1.63574,0 -2.594,-0.95214 -0.95214,-0.95215 -0.95214,-2.57569 0,-1.67847 0.90332,-2.66113 0.90942,-0.98877 2.44751,-0.98877 1.37939,0 2.17895,0.89111 0.80567,0.88501 0.80567,2.41089 z m -1.12305,-0.32959 q -0.0122,-0.92163 -0.5188,-1.47095 -0.50049,-0.54931 -1.33057,-0.54931 -0.93994,0 -1.50757,0.531 -0.56152,0.53101 -0.64697,1.49536 l 4.00391,-0.006 z"
         style="font-size:12.5px;fill:#4b4b4b;fill-opacity:1"
         id="path6686" />
    </g>
    <g
       style="font-style:normal;font-weight:normal;font-size:40px;line-height:125%;font-family:Sans;letter-spacing:0px;word-spacing:0px;fill:#4b4b4b;fill-opacity:1;stroke:none;stroke-width:1px;stroke-linecap:butt;stroke-linejoin:miter;stroke-opacity:1"
       id="text6630">
      <path
         d="m 55.521938,967.84045 0,0.54932 -5.163574,0 q 0.07324,1.15967 0.695801,1.77002 0.628662,0.60425 1.745605,0.60425 0.646973,0 1.251221,-0.15869 0.610352,-0.15869 1.208496,-0.47608 l 0,1.06201 q -0.604248,0.25635 -1.239014,0.39063 -0.634765,0.13428 -1.287841,0.13428 -1.635743,0 -2.593994,-0.95215 -0.952149,-0.95215 -0.952149,-2.57569 0,-1.67846 0.90332,-2.66113 0.909424,-0.98877 2.44751,-0.98877 1.379395,0 2.178955,0.89112 0.805664,0.88501 0.805664,2.41088 z m -1.123047,-0.32959 q -0.01221,-0.92163 -0.518798,-1.47094 -0.500489,-0.54932 -1.330567,-0.54932 -0.939941,0 -1.507568,0.53101 -0.561524,0.531 -0.646973,1.49536 l 4.003906,-0.006 z"
         style="font-size:12.5px;fill:#4b4b4b;fill-opacity:1"
         id="path6635" />
      <path
         d="m 63.023159,967.41321 0,4.12597 -1.123047,0 0,-4.08935 q 0,-0.97046 -0.378418,-1.45264 -0.378418,-0.48218 -1.135254,-0.48218 -0.909424,0 -1.434326,0.57984 -0.524902,0.57983 -0.524902,1.58081 l 0,3.86352 -1.129151,0 0,-6.83593 1.129151,0 0,1.06201 q 0.402832,-0.61646 0.946045,-0.92163 0.549316,-0.30518 1.263427,-0.30518 1.177979,0 1.782227,0.73242 0.604248,0.72632 0.604248,2.14234 z"
         style="font-size:12.5px;fill:#4b4b4b;fill-opacity:1"
         id="path6637" />
      <path
         d="m 69.773647,965.74084 0,-3.69873 1.123047,0 0,9.49707 -1.123047,0 0,-1.02539 q -0.354004,0.61036 -0.897216,0.90943 -0.53711,0.29297 -1.293946,0.29297 -1.239013,0 -2.020263,-0.98877 -0.775147,-0.98877 -0.775147,-2.6001 0,-1.61133 0.775147,-2.6001 0.78125,-0.98877 2.020263,-0.98877 0.756836,0 1.293946,0.29907 0.543212,0.29297 0.897216,0.90332 z m -3.826904,2.38648 q 0,1.23901 0.506592,1.94702 0.512695,0.70191 1.403808,0.70191 0.891114,0 1.403809,-0.70191 0.512695,-0.70801 0.512695,-1.94702 0,-1.23901 -0.512695,-1.94092 -0.512695,-0.70801 -1.403809,-0.70801 -0.891113,0 -1.403808,0.70801 -0.506592,0.70191 -0.506592,1.94092 z"
         style="font-size:12.5px;fill:#4b4b4b;fill-opacity:1"
         id="path6639" />
      <path
         d="m 79.838345,965.4906 q -0.903321,0 -1.428223,0.70801 -0.524902,0.7019 -0.524902,1.92871 0,1.22681 0.518798,1.93481 0.524903,0.70191 1.434327,0.70191 0.897216,0 1.422119,-0.70801 0.524902,-0.70801 0.524902,-1.92871 0,-1.2146 -0.524902,-1.92261 -0.524903,-0.71411 -1.422119,-0.71411 z m 0,-0.95215 q 1.464843,0 2.301025,0.95215 0.836182,0.95215 0.836182,2.63672 0,1.67847 -0.836182,2.63672 -0.836182,0.95215 -2.301025,0.95215 -1.470948,0 -2.307129,-0.95215 -0.830078,-0.95825 -0.830078,-2.63672 0,-1.68457 0.830078,-2.63672 0.836181,-0.95215 2.307129,-0.95215 z"
         style="font-size:12.5px;fill:#4b4b4b;fill-opacity:1"
         id="path6641" />
      <path
         d="m 88.291714,962.04211 0,0.93384 -1.074219,0 q -0.604248,0 -0.842285,0.24414 -0.231934,0.24414 -0.231934,0.87891 l 0,0.60425 1.849365,0 0,0.8728 -1.849365,0 0,5.96313 -1.12915,0 0,-5.96313 -1.074219,0 0,-0.8728 1.074219,0 0,-0.47608 q 0,-1.14135 0.531006,-1.66015 0.531006,-0.52491 1.68457,-0.52491 l 1.062012,0 z"
         style="font-size:12.5px;fill:#4b4b4b;fill-opacity:1"
         id="path6643" />
      <path
         d="m 97.587368,964.90466 0,1.06201 q -0.476074,-0.24414 -0.98877,-0.36621 -0.512695,-0.12207 -1.062011,-0.12207 -0.836182,0 -1.257324,0.25635 -0.41504,0.25635 -0.41504,0.76904 0,0.39063 0.299073,0.61646 0.299072,0.21973 1.202392,0.42114 l 0.384522,0.0855 q 1.196289,0.25635 1.696777,0.72632 0.506592,0.46387 0.506592,1.30005 0,0.95215 -0.756836,1.50757 -0.750732,0.55542 -2.069092,0.55542 -0.549316,0 -1.147461,-0.10987 -0.592041,-0.10376 -1.25122,-0.31738 l 0,-1.15967 q 0.622558,0.32349 1.226806,0.48828 0.604248,0.1587 1.196289,0.1587 0.793457,0 1.220703,-0.26856 0.427246,-0.27466 0.427246,-0.76904 0,-0.45777 -0.311279,-0.70191 -0.305176,-0.24414 -1.348877,-0.46997 l -0.390625,-0.0915 q -1.043701,-0.21973 -1.507568,-0.67139 -0.463867,-0.45776 -0.463867,-1.25122 0,-0.96435 0.683593,-1.48926 0.683594,-0.5249 1.940918,-0.5249 0.622559,0 1.171875,0.0915 0.549317,0.0916 1.013184,0.27466 z"
         style="font-size:12.5px;fill:#4b4b4b;fill-opacity:1"
         id="path6645" />
      <path
         d="m 104.66745,964.9657 0,1.0498 q -0.47608,-0.26245 -0.95826,-0.39062 -0.47607,-0.13428 -0.96435,-0.13428 -1.09253,0 -1.69678,0.6958 -0.60425,0.6897 -0.60425,1.94092 0,1.25122 0.60425,1.94702 0.60425,0.6897 1.69678,0.6897 0.48828,0 0.96435,-0.12818 0.48218,-0.13427 0.95826,-0.39672 l 0,1.03759 q -0.46997,0.21973 -0.97657,0.32959 -0.50048,0.10987 -1.06811,0.10987 -1.54419,0 -2.45361,-0.97046 -0.909429,-0.97046 -0.909429,-2.61841 0,-1.67236 0.915529,-2.63062 0.92163,-0.95825 2.52075,-0.95825 0.5188,0 1.01318,0.10987 0.49439,0.10376 0.95826,0.31738 z"
         style="font-size:12.5px;fill:#4b4b4b;fill-opacity:1"
         id="path6647" />
      <path
         d="m 109.25729,965.4906 q -0.90332,0 -1.42822,0.70801 -0.52491,0.7019 -0.52491,1.92871 0,1.22681 0.5188,1.93481 0.52491,0.70191 1.43433,0.70191 0.89722,0 1.42212,-0.70801 0.5249,-0.70801 0.5249,-1.92871 0,-1.2146 -0.5249,-1.92261 -0.5249,-0.71411 -1.42212,-0.71411 z m 0,-0.95215 q 1.46484,0 2.30103,0.95215 0.83618,0.95215 0.83618,2.63672 0,1.67847 -0.83618,2.63672 -0.83619,0.95215 -2.30103,0.95215 -1.47095,0 -2.30713,-0.95215 -0.83008,-0.95825 -0.83008,-2.63672 0,-1.68457 0.83008,-2.63672 0.83618,-0.95215 2.30713,-0.95215 z"
         style="font-size:12.5px;fill:#4b4b4b;fill-opacity:1"
         id="path6649" />
      <path
         d="m 115.33639,970.51379 0,3.62549 -1.12915,0 0,-9.43603 1.12915,0 0,1.03759 q 0.35401,-0.61035 0.89111,-0.90332 0.54322,-0.29907 1.29395,-0.29907 1.24512,0 2.02026,0.98877 0.78125,0.98877 0.78125,2.6001 0,1.61133 -0.78125,2.6001 -0.77514,0.98877 -2.02026,0.98877 -0.75073,0 -1.29395,-0.29297 -0.5371,-0.29907 -0.89111,-0.90943 z m 3.8208,-2.38647 q 0,-1.23901 -0.51269,-1.94092 -0.50659,-0.70801 -1.39771,-0.70801 -0.89111,0 -1.40381,0.70801 -0.50659,0.70191 -0.50659,1.94092 0,1.23901 0.50659,1.94702 0.5127,0.70191 1.40381,0.70191 0.89112,0 1.39771,-0.70191 0.51269,-0.70801 0.51269,-1.94702 z"
         style="font-size:12.5px;fill:#4b4b4b;fill-opacity:1"
         id="path6651" />
      <path
         d="m 128.0317,967.84045 0,0.54932 -5.16357,0 q 0.0732,1.15967 0.6958,1.77002 0.62866,0.60425 1.74561,0.60425 0.64697,0 1.25122,-0.15869 0.61035,-0.15869 1.20849,-0.47608 l 0,1.06201 q -0.60425,0.25635 -1.23901,0.39063 -0.63477,0.13428 -1.28784,0.13428 -1.63574,0 -2.594,-0.95215 -0.95215,-0.95215 -0.95215,-2.57569 0,-1.67846 0.90333,-2.66113 0.90942,-0.98877 2.4475,-0.98877 1.3794,0 2.17896,0.89112 0.80566,0.88501 0.80566,2.41088 z m -1.12304,-0.32959 q -0.0122,-0.92163 -0.5188,-1.47094 -0.50049,-0.54932 -1.33057,-0.54932 -0.93994,0 -1.50757,0.53101 -0.56152,0.531 -0.64697,1.49536 l 4.00391,-0.006 z"
         style="font-size:12.5px;fill:#4b4b4b;fill-opacity:1"
         id="path6653" />
    </g>
    <path
       style="fill:none;fill-rule:evenodd;stroke:#4b4b4b;stroke-width:1.5;stroke-linecap:round;stroke-linejoin:round;stroke-miterlimit:4;stroke-dasharray:3, 6;stroke-dashoffset:0;stroke-opacity:1"
       d="m 501.33528,893.29376 138.60103,0"
       id="path6609-2-9"
       inkscape:connector-curvature="0" />
    <g
       transform="translate(495.65304,147.70818)"
       style="font-style:normal;font-weight:normal;font-size:40px;line-height:125%;font-family:Sans;letter-spacing:0px;word-spacing:0px;fill:#4b4b4b;fill-opacity:1;stroke:none;stroke-width:1px;stroke-linecap:butt;stroke-linejoin:miter;stroke-opacity:1"
       id="text6626-4">
      <path
         inkscape:connector-curvature="0"
         d="m 18.697333,759.29047 q 0,-1.23902 -0.512695,-1.94092 -0.506592,-0.70801 -1.397705,-0.70801 -0.891113,0 -1.403809,0.70801 -0.506591,0.7019 -0.506591,1.94092 0,1.23901 0.506591,1.94702 0.512696,0.7019 1.403809,0.7019 0.891113,0 1.397705,-0.7019 0.512695,-0.70801 0.512695,-1.94702 z m -3.8208,-2.38648 q 0.354003,-0.61035 0.891113,-0.90332 0.543213,-0.29907 1.293945,-0.29907 1.245117,0 2.020264,0.98877 0.78125,0.98877 0.78125,2.6001 0,1.61132 -0.78125,2.60009 -0.775147,0.98877 -2.020264,0.98877 -0.750732,0 -1.293945,-0.29297 -0.53711,-0.29907 -0.891113,-0.90942 l 0,1.02539 -1.129151,0 0,-9.49707 1.129151,0 0,3.69873 z"
         style="font-size:12.5px;fill:#4b4b4b;fill-opacity:1"
         id="path6656-7" />
      <path
         inkscape:connector-curvature="0"
         d="m 27.571845,759.0036 0,0.54932 -5.163574,0 q 0.07324,1.15967 0.695801,1.77002 0.628662,0.60425 1.745605,0.60425 0.646973,0 1.251221,-0.1587 0.610351,-0.15869 1.208496,-0.47607 l 0,1.06201 q -0.604248,0.25635 -1.239014,0.39063 -0.634765,0.13427 -1.287842,0.13427 -1.635742,0 -2.593994,-0.95214 -0.952148,-0.95215 -0.952148,-2.57569 0,-1.67847 0.90332,-2.66113 0.909424,-0.98877 2.44751,-0.98877 1.379394,0 2.178955,0.89111 0.805664,0.88501 0.805664,2.41089 z m -1.123047,-0.32959 q -0.01221,-0.92163 -0.518799,-1.47095 -0.500488,-0.54931 -1.330566,-0.54931 -0.939941,0 -1.507568,0.531 -0.561524,0.53101 -0.646973,1.49536 l 4.003906,-0.006 z"
         style="font-size:12.5px;fill:#4b4b4b;fill-opacity:1"
         id="path6658-7" />
      <path
         inkscape:connector-curvature="0"
         d="m 33.888984,759.20502 q 0,-1.22071 -0.506592,-1.89209 -0.500488,-0.67139 -1.409912,-0.67139 -0.90332,0 -1.409912,0.67139 -0.500489,0.67138 -0.500489,1.89209 0,1.2146 0.500489,1.88598 0.506592,0.67139 1.409912,0.67139 0.909424,0 1.409912,-0.67139 0.506592,-0.67138 0.506592,-1.88598 z m 1.123047,2.64892 q 0,1.74561 -0.775147,2.594 -0.775146,0.85449 -2.374267,0.85449 -0.592041,0 -1.116944,-0.0915 -0.524902,-0.0854 -1.019287,-0.26856 l 0,-1.09253 q 0.494385,0.26856 0.976563,0.39673 0.482177,0.12817 0.982666,0.12817 1.104736,0 1.654052,-0.57983 0.549317,-0.57373 0.549317,-1.7395 l 0,-0.55542 q -0.347901,0.60425 -0.891114,0.90332 -0.543212,0.29907 -1.300048,0.29907 -1.257325,0 -2.026368,-0.95825 -0.769043,-0.95825 -0.769043,-2.53906 0,-1.58692 0.769043,-2.54517 0.769043,-0.95825 2.026368,-0.95825 0.756836,0 1.300048,0.29907 0.543213,0.29907 0.891114,0.90332 l 0,-1.0376 1.123047,0 0,5.98755 z"
         style="font-size:12.5px;fill:#4b4b4b;fill-opacity:1"
         id="path6660-0" />
      <path
         inkscape:connector-curvature="0"
         d="m 37.325263,755.86639 1.123047,0 0,6.83594 -1.123047,0 0,-6.83594 z m 0,-2.66113 1.123047,0 0,1.42212 -1.123047,0 0,-1.42212 z"
         style="font-size:12.5px;fill:#4b4b4b;fill-opacity:1"
         id="path6662-7" />
      <path
         inkscape:connector-curvature="0"
         d="m 46.474433,758.57635 0,4.12598 -1.123047,0 0,-4.08935 q 0,-0.97046 -0.378418,-1.45264 -0.378418,-0.48218 -1.135254,-0.48218 -0.909424,0 -1.434326,0.57984 -0.524902,0.57983 -0.524902,1.58081 l 0,3.86352 -1.129151,0 0,-6.83594 1.129151,0 0,1.06202 q 0.402832,-0.61646 0.946045,-0.92164 0.549316,-0.30517 1.263427,-0.30517 1.177979,0 1.782227,0.73242 0.604248,0.72632 0.604248,2.14233 z"
         style="font-size:12.5px;fill:#4b4b4b;fill-opacity:1"
         id="path6664-1" />
      <path
         inkscape:connector-curvature="0"
         d="m 54.409003,758.57635 0,4.12598 -1.123047,0 0,-4.08935 q 0,-0.97046 -0.378418,-1.45264 -0.378418,-0.48218 -1.135253,-0.48218 -0.909424,0 -1.434327,0.57984 -0.524902,0.57983 -0.524902,1.58081 l 0,3.86352 -1.12915,0 0,-6.83594 1.12915,0 0,1.06202 q 0.402832,-0.61646 0.946045,-0.92164 0.549316,-0.30517 1.263428,-0.30517 1.177978,0 1.782226,0.73242 0.604248,0.72632 0.604248,2.14233 z"
         style="font-size:12.5px;fill:#4b4b4b;fill-opacity:1"
         id="path6666-4" />
      <path
         inkscape:connector-curvature="0"
         d="m 56.661201,755.86639 1.123046,0 0,6.83594 -1.123046,0 0,-6.83594 z m 0,-2.66113 1.123046,0 0,1.42212 -1.123046,0 0,-1.42212 z"
         style="font-size:12.5px;fill:#4b4b4b;fill-opacity:1"
         id="path6668-4" />
      <path
         inkscape:connector-curvature="0"
         d="m 65.81037,758.57635 0,4.12598 -1.123046,0 0,-4.08935 q 0,-0.97046 -0.378418,-1.45264 -0.378418,-0.48218 -1.135254,-0.48218 -0.909424,0 -1.434326,0.57984 -0.524903,0.57983 -0.524903,1.58081 l 0,3.86352 -1.12915,0 0,-6.83594 1.12915,0 0,1.06202 q 0.402832,-0.61646 0.946045,-0.92164 0.549317,-0.30517 1.263428,-0.30517 1.177978,0 1.782226,0.73242 0.604248,0.72632 0.604248,2.14233 z"
         style="font-size:12.5px;fill:#4b4b4b;fill-opacity:1"
         id="path6670-6" />
      <path
         inkscape:connector-curvature="0"
         d="m 72.560859,759.20502 q 0,-1.22071 -0.506592,-1.89209 -0.500488,-0.67139 -1.409912,-0.67139 -0.90332,0 -1.409912,0.67139 -0.500489,0.67138 -0.500489,1.89209 0,1.2146 0.500489,1.88598 0.506592,0.67139 1.409912,0.67139 0.909424,0 1.409912,-0.67139 0.506592,-0.67138 0.506592,-1.88598 z m 1.123047,2.64892 q 0,1.74561 -0.775147,2.594 -0.775146,0.85449 -2.374267,0.85449 -0.592041,0 -1.116944,-0.0915 -0.524902,-0.0854 -1.019287,-0.26856 l 0,-1.09253 q 0.494385,0.26856 0.976563,0.39673 0.482177,0.12817 0.982666,0.12817 1.104736,0 1.654052,-0.57983 0.549317,-0.57373 0.549317,-1.7395 l 0,-0.55542 q -0.347901,0.60425 -0.891114,0.90332 -0.543212,0.29907 -1.300048,0.29907 -1.257325,0 -2.026368,-0.95825 -0.769043,-0.95825 -0.769043,-2.53906 0,-1.58692 0.769043,-2.54517 0.769043,-0.95825 2.026368,-0.95825 0.756836,0 1.300048,0.29907 0.543213,0.29907 0.891114,0.90332 l 0,-1.0376 1.123047,0 0,5.98755 z"
         style="font-size:12.5px;fill:#4b4b4b;fill-opacity:1"
         id="path6672-7" />
      <path
         inkscape:connector-curvature="0"
         d="m 82.625556,756.65375 q -0.90332,0 -1.428223,0.70801 -0.524902,0.7019 -0.524902,1.92871 0,1.2268 0.518799,1.93481 0.524902,0.70191 1.434326,0.70191 0.897217,0 1.422119,-0.70801 0.524902,-0.70801 0.524902,-1.92871 0,-1.2146 -0.524902,-1.92261 -0.524902,-0.71411 -1.422119,-0.71411 z m 0,-0.95215 q 1.464844,0 2.301025,0.95215 0.836182,0.95215 0.836182,2.63672 0,1.67846 -0.836182,2.63672 -0.836181,0.95214 -2.301025,0.95214 -1.470947,0 -2.307129,-0.95214 -0.830078,-0.95826 -0.830078,-2.63672 0,-1.68457 0.830078,-2.63672 0.836182,-0.95215 2.307129,-0.95215 z"
         style="font-size:12.5px;fill:#4b4b4b;fill-opacity:1"
         id="path6674-0" />
      <path
         inkscape:connector-curvature="0"
         d="m 91.078925,753.20526 0,0.93384 -1.074219,0 q -0.604248,0 -0.842285,0.24414 -0.231933,0.24414 -0.231933,0.87891 l 0,0.60424 1.849365,0 0,0.87281 -1.849365,0 0,5.96313 -1.129151,0 0,-5.96313 -1.074219,0 0,-0.87281 1.074219,0 0,-0.47607 q 0,-1.14136 0.531006,-1.66016 0.531006,-0.5249 1.68457,-0.5249 l 1.062012,0 z"
         style="font-size:12.5px;fill:#4b4b4b;fill-opacity:1"
         id="path6676-4" />
      <path
         inkscape:connector-curvature="0"
         d="m 100.37458,756.06781 0,1.06201 q -0.476075,-0.24414 -0.98877,-0.36621 -0.512695,-0.12207 -1.062012,-0.12207 -0.836181,0 -1.257324,0.25635 -0.415039,0.25635 -0.415039,0.76904 0,0.39063 0.299072,0.61646 0.299072,0.21972 1.202393,0.42114 l 0.384521,0.0855 q 1.196289,0.25635 1.696779,0.72632 0.50659,0.46386 0.50659,1.30005 0,0.95214 -0.756836,1.50756 -0.750732,0.55542 -2.069091,0.55542 -0.549317,0 -1.147461,-0.10986 -0.592041,-0.10376 -1.251221,-0.31738 l 0,-1.15967 q 0.622559,0.32349 1.226807,0.48828 0.604248,0.15869 1.196289,0.15869 0.793457,0 1.220703,-0.26855 0.427246,-0.27466 0.427246,-0.76905 0,-0.45776 -0.311279,-0.7019 -0.305176,-0.24414 -1.348877,-0.46997 l -0.390625,-0.0915 q -1.043702,-0.21973 -1.507569,-0.67139 -0.463867,-0.45776 -0.463867,-1.25122 0,-0.96436 0.683594,-1.48926 0.683594,-0.5249 1.940918,-0.5249 0.622558,0 1.171875,0.0915 0.549316,0.0915 1.013184,0.27466 z"
         style="font-size:12.5px;fill:#4b4b4b;fill-opacity:1"
         id="path6678-1" />
      <path
         inkscape:connector-curvature="0"
         d="m 107.45466,756.12885 0,1.0498 q -0.47608,-0.26245 -0.95825,-0.39063 -0.47608,-0.13427 -0.96436,-0.13427 -1.09253,0 -1.69678,0.6958 -0.60425,0.6897 -0.60425,1.94092 0,1.25122 0.60425,1.94702 0.60425,0.6897 1.69678,0.6897 0.48828,0 0.96436,-0.12818 0.48217,-0.13428 0.95825,-0.39673 l 0,1.0376 q -0.46997,0.21973 -0.97656,0.32959 -0.50049,0.10986 -1.06812,0.10986 -1.54419,0 -2.45361,-0.97046 -0.90943,-0.97045 -0.90943,-2.6184 0,-1.67237 0.91553,-2.63062 0.92163,-0.95825 2.52075,-0.95825 0.5188,0 1.01319,0.10986 0.49438,0.10376 0.95825,0.31739 z"
         style="font-size:12.5px;fill:#4b4b4b;fill-opacity:1"
         id="path6680-1" />
      <path
         inkscape:connector-curvature="0"
         d="m 112.0445,756.65375 q -0.90332,0 -1.42822,0.70801 -0.5249,0.7019 -0.5249,1.92871 0,1.2268 0.5188,1.93481 0.5249,0.70191 1.43432,0.70191 0.89722,0 1.42212,-0.70801 0.5249,-0.70801 0.5249,-1.92871 0,-1.2146 -0.5249,-1.92261 -0.5249,-0.71411 -1.42212,-0.71411 z m 0,-0.95215 q 1.46485,0 2.30103,0.95215 0.83618,0.95215 0.83618,2.63672 0,1.67846 -0.83618,2.63672 -0.83618,0.95214 -2.30103,0.95214 -1.47095,0 -2.30713,-0.95214 -0.83008,-0.95826 -0.83008,-2.63672 0,-1.68457 0.83008,-2.63672 0.83618,-0.95215 2.30713,-0.95215 z"
         style="font-size:12.5px;fill:#4b4b4b;fill-opacity:1"
         id="path6682-2" />
      <path
         inkscape:connector-curvature="0"
         d="m 118.1236,761.67694 0,3.62549 -1.12915,0 0,-9.43604 1.12915,0 0,1.0376 q 0.35401,-0.61035 0.89112,-0.90332 0.54321,-0.29907 1.29394,-0.29907 1.24512,0 2.02027,0.98877 0.78125,0.98877 0.78125,2.6001 0,1.61132 -0.78125,2.60009 -0.77515,0.98877 -2.02027,0.98877 -0.75073,0 -1.29394,-0.29297 -0.53711,-0.29907 -0.89112,-0.90942 z m 3.8208,-2.38647 q 0,-1.23902 -0.51269,-1.94092 -0.50659,-0.70801 -1.39771,-0.70801 -0.89111,0 -1.40381,0.70801 -0.50659,0.7019 -0.50659,1.94092 0,1.23901 0.50659,1.94702 0.5127,0.7019 1.40381,0.7019 0.89112,0 1.39771,-0.7019 0.51269,-0.70801 0.51269,-1.94702 z"
         style="font-size:12.5px;fill:#4b4b4b;fill-opacity:1"
         id="path6684-5" />
      <path
         inkscape:connector-curvature="0"
         d="m 130.81892,759.0036 0,0.54932 -5.16358,0 q 0.0732,1.15967 0.6958,1.77002 0.62866,0.60425 1.74561,0.60425 0.64697,0 1.25122,-0.1587 0.61035,-0.15869 1.20849,-0.47607 l 0,1.06201 q -0.60424,0.25635 -1.23901,0.39063 -0.63477,0.13427 -1.28784,0.13427 -1.63574,0 -2.594,-0.95214 -0.95214,-0.95215 -0.95214,-2.57569 0,-1.67847 0.90332,-2.66113 0.90942,-0.98877 2.44751,-0.98877 1.37939,0 2.17895,0.89111 0.80567,0.88501 0.80567,2.41089 z m -1.12305,-0.32959 q -0.0122,-0.92163 -0.5188,-1.47095 -0.50049,-0.54931 -1.33057,-0.54931 -0.93994,0 -1.50757,0.531 -0.56152,0.53101 -0.64697,1.49536 l 4.00391,-0.006 z"
         style="font-size:12.5px;fill:#4b4b4b;fill-opacity:1"
         id="path6686-7" />
    </g>
    <path
       style="fill:none;fill-rule:evenodd;stroke:#4b4b4b;stroke-width:1.5;stroke-linecap:round;stroke-linejoin:round;stroke-miterlimit:4;stroke-dasharray:3, 6;stroke-dashoffset:0;stroke-opacity:1"
       d="m 500.80108,981.85953 139.07798,0"
       id="path6609-5"
       inkscape:connector-curvature="0" />
    <g
       transform="translate(462,-0.01974049)"
       style="font-style:normal;font-weight:normal;font-size:40px;line-height:125%;font-family:Sans;letter-spacing:0px;word-spacing:0px;fill:#4b4b4b;fill-opacity:1;stroke:none;stroke-width:1px;stroke-linecap:butt;stroke-linejoin:miter;stroke-opacity:1"
       id="text6630-8">
      <path
         inkscape:connector-curvature="0"
         d="m 55.521938,967.84045 0,0.54932 -5.163574,0 q 0.07324,1.15967 0.695801,1.77002 0.628662,0.60425 1.745605,0.60425 0.646973,0 1.251221,-0.15869 0.610352,-0.15869 1.208496,-0.47608 l 0,1.06201 q -0.604248,0.25635 -1.239014,0.39063 -0.634765,0.13428 -1.287841,0.13428 -1.635743,0 -2.593994,-0.95215 -0.952149,-0.95215 -0.952149,-2.57569 0,-1.67846 0.90332,-2.66113 0.909424,-0.98877 2.44751,-0.98877 1.379395,0 2.178955,0.89112 0.805664,0.88501 0.805664,2.41088 z m -1.123047,-0.32959 q -0.01221,-0.92163 -0.518798,-1.47094 -0.500489,-0.54932 -1.330567,-0.54932 -0.939941,0 -1.507568,0.53101 -0.561524,0.531 -0.646973,1.49536 l 4.003906,-0.006 z"
         style="font-size:12.5px;fill:#4b4b4b;fill-opacity:1"
         id="path6635-4" />
      <path
         inkscape:connector-curvature="0"
         d="m 63.023159,967.41321 0,4.12597 -1.123047,0 0,-4.08935 q 0,-0.97046 -0.378418,-1.45264 -0.378418,-0.48218 -1.135254,-0.48218 -0.909424,0 -1.434326,0.57984 -0.524902,0.57983 -0.524902,1.58081 l 0,3.86352 -1.129151,0 0,-6.83593 1.129151,0 0,1.06201 q 0.402832,-0.61646 0.946045,-0.92163 0.549316,-0.30518 1.263427,-0.30518 1.177979,0 1.782227,0.73242 0.604248,0.72632 0.604248,2.14234 z"
         style="font-size:12.5px;fill:#4b4b4b;fill-opacity:1"
         id="path6637-0" />
      <path
         inkscape:connector-curvature="0"
         d="m 69.773647,965.74084 0,-3.69873 1.123047,0 0,9.49707 -1.123047,0 0,-1.02539 q -0.354004,0.61036 -0.897216,0.90943 -0.53711,0.29297 -1.293946,0.29297 -1.239013,0 -2.020263,-0.98877 -0.775147,-0.98877 -0.775147,-2.6001 0,-1.61133 0.775147,-2.6001 0.78125,-0.98877 2.020263,-0.98877 0.756836,0 1.293946,0.29907 0.543212,0.29297 0.897216,0.90332 z m -3.826904,2.38648 q 0,1.23901 0.506592,1.94702 0.512695,0.70191 1.403808,0.70191 0.891114,0 1.403809,-0.70191 0.512695,-0.70801 0.512695,-1.94702 0,-1.23901 -0.512695,-1.94092 -0.512695,-0.70801 -1.403809,-0.70801 -0.891113,0 -1.403808,0.70801 -0.506592,0.70191 -0.506592,1.94092 z"
         style="font-size:12.5px;fill:#4b4b4b;fill-opacity:1"
         id="path6639-8" />
      <path
         inkscape:connector-curvature="0"
         d="m 79.838345,965.4906 q -0.903321,0 -1.428223,0.70801 -0.524902,0.7019 -0.524902,1.92871 0,1.22681 0.518798,1.93481 0.524903,0.70191 1.434327,0.70191 0.897216,0 1.422119,-0.70801 0.524902,-0.70801 0.524902,-1.92871 0,-1.2146 -0.524902,-1.92261 -0.524903,-0.71411 -1.422119,-0.71411 z m 0,-0.95215 q 1.464843,0 2.301025,0.95215 0.836182,0.95215 0.836182,2.63672 0,1.67847 -0.836182,2.63672 -0.836182,0.95215 -2.301025,0.95215 -1.470948,0 -2.307129,-0.95215 -0.830078,-0.95825 -0.830078,-2.63672 0,-1.68457 0.830078,-2.63672 0.836181,-0.95215 2.307129,-0.95215 z"
         style="font-size:12.5px;fill:#4b4b4b;fill-opacity:1"
         id="path6641-8" />
      <path
         inkscape:connector-curvature="0"
         d="m 88.291714,962.04211 0,0.93384 -1.074219,0 q -0.604248,0 -0.842285,0.24414 -0.231934,0.24414 -0.231934,0.87891 l 0,0.60425 1.849365,0 0,0.8728 -1.849365,0 0,5.96313 -1.12915,0 0,-5.96313 -1.074219,0 0,-0.8728 1.074219,0 0,-0.47608 q 0,-1.14135 0.531006,-1.66015 0.531006,-0.52491 1.68457,-0.52491 l 1.062012,0 z"
         style="font-size:12.5px;fill:#4b4b4b;fill-opacity:1"
         id="path6643-7" />
      <path
         inkscape:connector-curvature="0"
         d="m 97.587368,964.90466 0,1.06201 q -0.476074,-0.24414 -0.98877,-0.36621 -0.512695,-0.12207 -1.062011,-0.12207 -0.836182,0 -1.257324,0.25635 -0.41504,0.25635 -0.41504,0.76904 0,0.39063 0.299073,0.61646 0.299072,0.21973 1.202392,0.42114 l 0.384522,0.0855 q 1.196289,0.25635 1.696777,0.72632 0.506592,0.46387 0.506592,1.30005 0,0.95215 -0.756836,1.50757 -0.750732,0.55542 -2.069092,0.55542 -0.549316,0 -1.147461,-0.10987 -0.592041,-0.10376 -1.25122,-0.31738 l 0,-1.15967 q 0.622558,0.32349 1.226806,0.48828 0.604248,0.1587 1.196289,0.1587 0.793457,0 1.220703,-0.26856 0.427246,-0.27466 0.427246,-0.76904 0,-0.45777 -0.311279,-0.70191 -0.305176,-0.24414 -1.348877,-0.46997 l -0.390625,-0.0915 q -1.043701,-0.21973 -1.507568,-0.67139 -0.463867,-0.45776 -0.463867,-1.25122 0,-0.96435 0.683593,-1.48926 0.683594,-0.5249 1.940918,-0.5249 0.622559,0 1.171875,0.0915 0.549317,0.0916 1.013184,0.27466 z"
         style="font-size:12.5px;fill:#4b4b4b;fill-opacity:1"
         id="path6645-2" />
      <path
         inkscape:connector-curvature="0"
         d="m 104.66745,964.9657 0,1.0498 q -0.47608,-0.26245 -0.95826,-0.39062 -0.47607,-0.13428 -0.96435,-0.13428 -1.09253,0 -1.69678,0.6958 -0.60425,0.6897 -0.60425,1.94092 0,1.25122 0.60425,1.94702 0.60425,0.6897 1.69678,0.6897 0.48828,0 0.96435,-0.12818 0.48218,-0.13427 0.95826,-0.39672 l 0,1.03759 q -0.46997,0.21973 -0.97657,0.32959 -0.50048,0.10987 -1.06811,0.10987 -1.54419,0 -2.45361,-0.97046 -0.909429,-0.97046 -0.909429,-2.61841 0,-1.67236 0.915529,-2.63062 0.92163,-0.95825 2.52075,-0.95825 0.5188,0 1.01318,0.10987 0.49439,0.10376 0.95826,0.31738 z"
         style="font-size:12.5px;fill:#4b4b4b;fill-opacity:1"
         id="path6647-4" />
      <path
         inkscape:connector-curvature="0"
         d="m 109.25729,965.4906 q -0.90332,0 -1.42822,0.70801 -0.52491,0.7019 -0.52491,1.92871 0,1.22681 0.5188,1.93481 0.52491,0.70191 1.43433,0.70191 0.89722,0 1.42212,-0.70801 0.5249,-0.70801 0.5249,-1.92871 0,-1.2146 -0.5249,-1.92261 -0.5249,-0.71411 -1.42212,-0.71411 z m 0,-0.95215 q 1.46484,0 2.30103,0.95215 0.83618,0.95215 0.83618,2.63672 0,1.67847 -0.83618,2.63672 -0.83619,0.95215 -2.30103,0.95215 -1.47095,0 -2.30713,-0.95215 -0.83008,-0.95825 -0.83008,-2.63672 0,-1.68457 0.83008,-2.63672 0.83618,-0.95215 2.30713,-0.95215 z"
         style="font-size:12.5px;fill:#4b4b4b;fill-opacity:1"
         id="path6649-0" />
      <path
         inkscape:connector-curvature="0"
         d="m 115.33639,970.51379 0,3.62549 -1.12915,0 0,-9.43603 1.12915,0 0,1.03759 q 0.35401,-0.61035 0.89111,-0.90332 0.54322,-0.29907 1.29395,-0.29907 1.24512,0 2.02026,0.98877 0.78125,0.98877 0.78125,2.6001 0,1.61133 -0.78125,2.6001 -0.77514,0.98877 -2.02026,0.98877 -0.75073,0 -1.29395,-0.29297 -0.5371,-0.29907 -0.89111,-0.90943 z m 3.8208,-2.38647 q 0,-1.23901 -0.51269,-1.94092 -0.50659,-0.70801 -1.39771,-0.70801 -0.89111,0 -1.40381,0.70801 -0.50659,0.70191 -0.50659,1.94092 0,1.23901 0.50659,1.94702 0.5127,0.70191 1.40381,0.70191 0.89112,0 1.39771,-0.70191 0.51269,-0.70801 0.51269,-1.94702 z"
         style="font-size:12.5px;fill:#4b4b4b;fill-opacity:1"
         id="path6651-6" />
      <path
         inkscape:connector-curvature="0"
         d="m 128.0317,967.84045 0,0.54932 -5.16357,0 q 0.0732,1.15967 0.6958,1.77002 0.62866,0.60425 1.74561,0.60425 0.64697,0 1.25122,-0.15869 0.61035,-0.15869 1.20849,-0.47608 l 0,1.06201 q -0.60425,0.25635 -1.23901,0.39063 -0.63477,0.13428 -1.28784,0.13428 -1.63574,0 -2.594,-0.95215 -0.95215,-0.95215 -0.95215,-2.57569 0,-1.67846 0.90333,-2.66113 0.90942,-0.98877 2.4475,-0.98877 1.3794,0 2.17896,0.89112 0.80566,0.88501 0.80566,2.41088 z m -1.12304,-0.32959 q -0.0122,-0.92163 -0.5188,-1.47094 -0.50049,-0.54932 -1.33057,-0.54932 -0.93994,0 -1.50757,0.53101 -0.56152,0.531 -0.64697,1.49536 l 4.00391,-0.006 z"
         style="font-size:12.5px;fill:#4b4b4b;fill-opacity:1"
         id="path6653-6" />
    </g>
  </g>
</svg>
