<?xml version="1.0" encoding="utf-8"?>
<svg viewBox="10.347 6.527 301.538 29.033" xmlns="http://www.w3.org/2000/svg">
  <g id="layer1" transform="matrix(1, 0, 0, 1, 0, -1012.362183)">
    <g style="font-style:normal;font-weight:normal;font-size:40px;line-height:125%;font-family:sans-serif;letter-spacing:0px;word-spacing:0px;fill:#000000;fill-opacity:1;stroke:none;stroke-width:1px;stroke-linecap:butt;stroke-linejoin:miter;stroke-opacity:1" id="text3429">
      <path d="m 24.0876,1031.78 0,9.9024 -2.695313,0 0,-9.8145 q 0,-2.3291 -0.908203,-3.4863 -0.908203,-1.1572 -2.724609,-1.1572 -2.182617,0 -3.442383,1.3916 -1.259766,1.3916 -1.259766,3.7939 l 0,9.2725 -2.709961,0 0,-22.793 2.709961,0 0,8.9356 q 0.966797,-1.4795 2.270508,-2.212 1.31836,-0.7324 3.032227,-0.7324 2.827148,0 4.277343,1.7578 1.450196,1.7432 1.450196,5.1416 z" style="font-size:30px" id="path3503"/>
      <path d="m 43.526076,1032.8054 0,1.3184 -12.392578,0 q 0.175781,2.7832 1.669922,4.248 1.508789,1.4502 4.189453,1.4502 1.552735,0 3.00293,-0.3808 1.464844,-0.3809 2.900391,-1.1426 l 0,2.5488 q -1.450196,0.6152 -2.973633,0.9375 -1.523438,0.3223 -3.090821,0.3223 -3.925781,0 -6.225586,-2.2852 -2.285156,-2.2851 -2.285156,-6.1816 0,-4.0283 2.167969,-6.3867 2.182617,-2.3731 5.874023,-2.3731 3.310547,0 5.229493,2.1387 1.933593,2.124 1.933593,5.7861 z m -2.695312,-0.791 q -0.0293,-2.2119 -1.245117,-3.5303 -1.201172,-1.3183 -3.19336,-1.3183 -2.255859,0 -3.618164,1.2744 -1.347656,1.2744 -1.552734,3.5889 l 9.609375,-0.015 z" style="font-size:30px" id="path3505"/>
      <path d="m 47.891311,1018.8894 2.695312,0 0,22.793 -2.695312,0 0,-22.793 z" style="font-size:30px" id="path3507"/>
      <path d="m 56.211623,1018.8894 2.695313,0 0,22.793 -2.695313,0 0,-22.793 z" style="font-size:30px" id="path3509"/>
      <path d="m 70.889358,1027.1658 q -2.167969,0 -3.427735,1.6992 -1.259765,1.6846 -1.259765,4.6289 0,2.9443 1.245117,4.6436 1.259765,1.6845 3.442383,1.6845 2.15332,0 3.413086,-1.6992 1.259765,-1.6992 1.259765,-4.6289 0,-2.915 -1.259765,-4.6143 -1.259766,-1.7138 -3.413086,-1.7138 z m 0,-2.2852 q 3.515625,0 5.522461,2.2852 2.006835,2.2851 2.006835,6.3281 0,4.0283 -2.006835,6.3281 -2.006836,2.2852 -5.522461,2.2852 -3.530274,0 -5.53711,-2.2852 -1.992187,-2.2998 -1.992187,-6.3281 0,-4.043 1.992187,-6.3281 2.006836,-2.2852 5.53711,-2.2852 z" style="font-size:30px" id="path3511"/>
      <path d="m 99.878615,1033.4353 q -3.266601,0 -4.526367,0.7471 -1.259765,0.747 -1.259765,2.5488 0,1.4355 0.9375,2.2852 0.952148,0.8349 2.578125,0.8349 2.241211,0 3.588862,-1.582 1.36231,-1.5967 1.36231,-4.2334 l 0,-0.6006 -2.680665,0 z m 5.375975,-1.1133 0,9.3604 -2.69531,0 0,-2.4903 q -0.92285,1.4942 -2.29981,2.212 -1.376948,0.7031 -3.369136,0.7031 -2.519531,0 -4.013672,-1.4063 -1.479492,-1.4209 -1.479492,-3.7939 0,-2.7686 1.845703,-4.1748 1.860352,-1.4063 5.53711,-1.4063 l 3.779297,0 0,-0.2636 q 0,-1.8604 -1.23047,-2.8711 -1.21582,-1.0254 -3.427734,-1.0254 -1.40625,0 -2.739257,0.3369 -1.333008,0.3369 -2.563477,1.0107 l 0,-2.4902 q 1.479492,-0.5713 2.871094,-0.8496 1.391601,-0.293 2.709961,-0.293 3.559573,0 5.317383,1.8457 1.75781,1.8457 1.75781,5.5957 z" style="font-size:30px" class="at" id="path3513"/>
      <path d="m 113.54561,1020.6179 0,4.6582 5.55176,0 0,2.0947 -5.55176,0 0,8.9063 q 0,2.0068 0.54199,2.5781 0.55664,0.5713 2.24121,0.5713 l 2.76856,0 0,2.2559 -2.76856,0 q -3.12012,0 -4.30664,-1.1573 -1.18652,-1.1718 -1.18652,-4.248 l 0,-8.9063 -1.97754,0 0,-2.0947 1.97754,0 0,-4.6582 2.70996,0 z" style="font-size:30px" class="at" id="path3515"/>
      <path d="m 139.66377,1033.4353 q -3.2666,0 -4.52637,0.7471 -1.25976,0.747 -1.25976,2.5488 0,1.4355 0.9375,2.2852 0.95215,0.8349 2.57812,0.8349 2.24121,0 3.58887,-1.582 1.36231,-1.5967 1.36231,-4.2334 l 0,-0.6006 -2.68067,0 z m 5.37598,-1.1133 0,9.3604 -2.69531,0 0,-2.4903 q -0.92286,1.4942 -2.29981,2.212 -1.37695,0.7031 -3.36914,0.7031 -2.51953,0 -4.01367,-1.4063 -1.47949,-1.4209 -1.47949,-3.7939 0,-2.7686 1.8457,-4.1748 1.86035,-1.4063 5.53711,-1.4063 l 3.7793,0 0,-0.2636 q 0,-1.8604 -1.23047,-2.8711 -1.21582,-1.0254 -3.42774,-1.0254 -1.40625,0 -2.73926,0.3369 -1.333,0.3369 -2.56347,1.0107 l 0,-2.4902 q 1.47949,-0.5713 2.87109,-0.8496 1.3916,-0.293 2.70996,-0.293 3.55957,0 5.31739,1.8457 1.75781,1.8457 1.75781,5.5957 z" style="font-size:30px" id="path3517"/>
      <path d="m 164.30244,1031.78 0,9.9024 -2.69531,0 0,-9.8145 q 0,-2.3291 -0.9082,-3.4863 -0.90821,-1.1572 -2.72461,-1.1572 -2.18262,0 -3.44238,1.3916 -1.25977,1.3916 -1.25977,3.7939 l 0,9.2725 -2.70996,0 0,-16.4063 2.70996,0 0,2.5489 q 0.9668,-1.4795 2.27051,-2.212 1.31836,-0.7324 3.03222,-0.7324 2.82715,0 4.27735,1.7578 1.45019,1.7432 1.45019,5.1416 z" style="font-size:30px" id="path3519"/>
      <path d="m 180.50362,1033.2888 q 0,-2.9297 -1.21582,-4.541 -1.20118,-1.6113 -3.38379,-1.6113 -2.16797,0 -3.38379,1.6113 -1.20117,1.6113 -1.20117,4.541 0,2.9151 1.20117,4.5264 1.21582,1.6113 3.38379,1.6113 2.18261,0 3.38379,-1.6113 1.21582,-1.6113 1.21582,-4.5264 z m 2.69531,6.3574 q 0,4.1895 -1.86035,6.2256 -1.86036,2.0508 -5.69825,2.0508 -1.42089,0 -2.68066,-0.2197 -1.25977,-0.2051 -2.44629,-0.6446 l 0,-2.622 q 1.18652,0.6445 2.34375,0.9521 1.15723,0.3076 2.3584,0.3076 2.65137,0 3.96973,-1.3916 1.31836,-1.3769 1.31836,-4.1748 l 0,-1.333 q -0.83497,1.4502 -2.13868,2.168 -1.30371,0.7178 -3.12011,0.7178 -3.01758,0 -4.86328,-2.2998 -1.84571,-2.2998 -1.84571,-6.0938 0,-3.8086 1.84571,-6.1084 1.8457,-2.2998 4.86328,-2.2998 1.8164,0 3.12011,0.7178 1.30371,0.7178 2.13868,2.168 l 0,-2.4903 2.69531,0 0,14.3701 z" style="font-size:30px" id="path3521"/>
      <path d="m 202.78389,1032.8054 0,1.3184 -12.39258,0 q 0.17578,2.7832 1.66992,4.248 1.50879,1.4502 4.18946,1.4502 1.55273,0 3.00293,-0.3808 1.46484,-0.3809 2.90039,-1.1426 l 0,2.5488 q -1.4502,0.6152 -2.97364,0.9375 -1.52343,0.3223 -3.09082,0.3223 -3.92578,0 -6.22558,-2.2852 -2.28516,-2.2851 -2.28516,-6.1816 0,-4.0283 2.16797,-6.3867 2.18262,-2.3731 5.87402,-2.3731 3.31055,0 5.2295,2.1387 1.93359,2.124 1.93359,5.7861 z m -2.69531,-0.791 q -0.0293,-2.2119 -1.24512,-3.5303 -1.20117,-1.3183 -3.19336,-1.3183 -2.25586,0 -3.61816,1.2744 -1.34766,1.2744 -1.55274,3.5889 l 9.60938,-0.015 z" style="font-size:30px" id="path3523"/>
      <path d="m 207.14912,1018.8894 2.69532,0 0,22.793 -2.69532,0 0,-22.793 z" style="font-size:30px" id="path3525"/>
      <path d="m 215.46944,1025.2761 2.69531,0 0,16.4063 -2.69531,0 0,-16.4063 z m 0,-6.3867 2.69531,0 0,3.4131 -2.69531,0 0,-3.4131 z" style="font-size:30px" id="path3527"/>
      <path d="m 223.68721,1018.8894 2.70996,0 0,13.4619 8.04199,-7.0752 3.44239,0 -8.70118,7.6758 9.06739,8.7305 -3.51563,0 -8.33496,-8.0127 0,8.0127 -2.70996,0 0,-22.793 z" style="font-size:30px" id="path3529"/>
      <path d="m 248.09151,1033.4353 q -3.26661,0 -4.52637,0.7471 -1.25977,0.747 -1.25977,2.5488 0,1.4355 0.9375,2.2852 0.95215,0.8349 2.57813,0.8349 2.24121,0 3.58887,-1.582 1.3623,-1.5967 1.3623,-4.2334 l 0,-0.6006 -2.68066,0 z m 5.37597,-1.1133 0,9.3604 -2.69531,0 0,-2.4903 q -0.92285,1.4942 -2.2998,2.212 -1.37696,0.7031 -3.36915,0.7031 -2.51953,0 -4.01367,-1.4063 -1.47949,-1.4209 -1.47949,-3.7939 0,-2.7686 1.8457,-4.1748 1.86036,-1.4063 5.53711,-1.4063 l 3.7793,0 0,-0.2636 q 0,-1.8604 -1.23047,-2.8711 -1.21582,-1.0254 -3.42773,-1.0254 -1.40625,0 -2.73926,0.3369 -1.33301,0.3369 -2.56348,1.0107 l 0,-2.4902 q 1.47949,-0.5713 2.8711,-0.8496 1.3916,-0.293 2.70996,-0.293 3.55957,0 5.31738,1.8457 1.75781,1.8457 1.75781,5.5957 z" style="font-size:30px" id="path3531"/>
      <path d="m 259.50264,1037.9617 3.09082,0 0,3.7207 -3.09082,0 0,-3.7207 z" style="font-size:30px" id="path3533"/>
      <path d="m 281.446,1028.4255 q 1.01074,-1.8164 2.41699,-2.6806 1.40625,-0.8643 3.31055,-0.8643 2.56347,0 3.95508,1.8018 1.3916,1.7871 1.3916,5.0976 l 0,9.9024 -2.70996,0 0,-9.8145 q 0,-2.3584 -0.83496,-3.501 -0.83497,-1.1425 -2.54883,-1.1425 -2.09473,0 -3.31055,1.3916 -1.21582,1.3916 -1.21582,3.7939 l 0,9.2725 -2.70996,0 0,-9.8145 q 0,-2.373 -0.83496,-3.501 -0.83496,-1.1425 -2.57813,-1.1425 -2.06543,0 -3.28125,1.4062 -1.21582,1.3916 -1.21582,3.7793 l 0,9.2725 -2.70996,0 0,-16.4063 2.70996,0 0,2.5489 q 0.92285,-1.5088 2.21192,-2.2266 1.28906,-0.7178 3.06152,-0.7178 1.78711,0 3.03223,0.9082 1.25976,0.9082 1.86035,2.6367 z" style="font-size:30px" id="path3535"/>
      <path d="m 311.88545,1032.8054 0,1.3184 -12.39258,0 q 0.17578,2.7832 1.66993,4.248 1.50878,1.4502 4.18945,1.4502 1.55273,0 3.00293,-0.3808 1.46484,-0.3809 2.90039,-1.1426 l 0,2.5488 q -1.4502,0.6152 -2.97363,0.9375 -1.52344,0.3223 -3.09082,0.3223 -3.92579,0 -6.22559,-2.2852 -2.28516,-2.2851 -2.28516,-6.1816 0,-4.0283 2.16797,-6.3867 2.18262,-2.3731 5.87403,-2.3731 3.31054,0 5.22949,2.1387 1.93359,2.124 1.93359,5.7861 z m -2.69531,-0.791 q -0.0293,-2.2119 -1.24512,-3.5303 -1.20117,-1.3183 -3.19336,-1.3183 -2.25586,0 -3.61816,1.2744 -1.34766,1.2744 -1.55274,3.5889 l 9.60938,-0.015 z" style="font-size:30px" id="path3537"/>
    </g>
  </g>
</svg>